<svg width="96" height="25" viewBox="0 0 96 25" fill="none" xmlns="http://www.w3.org/2000/svg">
<g clip-path="url(#clip0_9515_270234)">
<path d="M8.66513 13.1873H5.41852L7.14767 7.5456L8.66513 13.1873ZM3.73456 19.4046L4.84293 15.6895H9.21693L10.2539 19.3951H14.2973L10.2801 5.26703C10.0423 4.43219 9.54278 4.04688 8.66513 4.04688H2.93064V5.3812H3.40633C4.00571 5.3812 4.32918 5.61904 4.32918 6.07333C4.32918 6.3754 4.26258 6.62751 4.02474 7.31489L0.000366211 19.4046H3.73456Z" fill="#0F2B93"/>
<path d="M18.9755 19.4046V5.22422C18.9755 4.48451 18.5426 4.04688 17.8267 4.04688H14.2709V5.3812H14.5087C15.1057 5.3812 15.3602 5.63569 15.3602 6.23982V19.4046H18.9755Z" fill="#0F2B93"/>
<path d="M25.1214 19.4046V5.22422C25.1214 4.48451 24.6814 4.04688 23.9702 4.04688H20.4263V5.3812H20.6641C21.2635 5.3812 21.518 5.63569 21.518 6.23982V19.4046H25.1214Z" fill="#0F2B93"/>
<path d="M31.4257 5.45008C31.4257 4.42021 30.6622 3.78516 29.3541 3.78516C28.0459 3.78516 27.2777 4.40832 27.2777 5.45008C27.2777 6.49185 28.065 7.11501 29.3541 7.11501C30.6432 7.11501 31.4257 6.49661 31.4257 5.45008ZM31.3568 19.4069V9.07011C31.3568 8.33279 30.9191 7.89753 30.2032 7.89753H26.7045V9.20569H26.9114C27.5084 9.20569 27.7629 9.48159 27.7629 10.081V19.4069H31.3568Z" fill="#0F2B93"/>
<path d="M39.2743 13.8788V16.117C38.6725 16.7377 37.94 17.1183 37.3192 17.1183C36.6984 17.1183 36.4439 16.7996 36.4439 15.9291C36.4439 15.0585 36.6247 14.6899 37.2716 14.4401C37.9158 14.1779 38.5876 13.9896 39.2743 13.8788ZM34.4127 11.1911C35.5175 10.643 36.7265 10.3365 37.959 10.2921C38.9294 10.2921 39.2743 10.637 39.2743 11.643V11.8999C37.802 12.1378 37.3406 12.2282 36.5105 12.4113C36.0456 12.5137 35.5904 12.6562 35.15 12.837C33.6968 13.4198 33.0094 14.5424 33.0094 16.2668C33.0094 18.455 33.9608 19.511 35.9088 19.511C36.5714 19.5137 37.2284 19.3902 37.8448 19.1471C38.4039 18.8926 38.9237 18.5594 39.3885 18.1577V18.3194C39.3885 19.033 39.7547 19.3969 40.4707 19.3969H43.7648V18.1672H43.6031C42.9823 18.1672 42.754 17.8889 42.754 17.154V11.6716C42.754 8.74845 41.7384 7.73047 38.8105 7.73047C37.8823 7.7351 36.9575 7.8444 36.0538 8.05632C35.2 8.24673 34.3776 8.55745 33.6112 8.97916L34.4127 11.1911Z" fill="#0F2B93"/>
<path d="M49.0098 19.4052V11.6228C49.6115 10.9545 50.2299 10.6524 50.9435 10.6524C51.7069 10.6524 51.8948 10.9545 51.8948 12.1128V19.4052H55.4863V11.58C55.4863 9.75811 55.3555 9.18252 54.7728 8.56411C54.2971 8.02896 53.5526 7.75781 52.6036 7.75781C51.198 7.75781 50.2085 8.19307 48.879 9.43701V8.97797C48.879 8.26443 48.5055 7.89576 47.7706 7.89576H44.3575V9.20392H44.5644C45.1614 9.20392 45.4183 9.47982 45.4183 10.0792V19.4052H49.0098Z" fill="#0F2B93"/>
<path d="M66.1374 16.9883H61.1259L65.9185 10.2691V7.89062H58.4026C57.5511 7.89062 57.1586 8.28069 57.1586 9.13456V11.2276H58.4929V11.0231C58.4929 10.4927 58.7689 10.2406 59.3421 10.2406H61.9251L57.0825 17.0358V19.4143H66.1207L66.1374 16.9883Z" fill="#0F2B93"/>
<path d="M84.9915 19.114V6.1014C84.9915 5.06439 84.6229 4.71475 83.6168 4.71475H80.57V6.17751H80.7531C81.4476 6.17751 81.5832 6.33449 81.5832 7.17171V19.114H84.9915ZM86.4947 19.114H89.8769V8.97935C89.8769 7.96136 89.4845 7.59508 88.4926 7.59508H86.4947V19.114ZM80.0895 19.114V7.60459H78.0844C77.0926 7.60459 76.7049 7.97088 76.7049 8.98886V19.114H80.0895ZM93.0783 12.4995C93.0783 18.234 88.9541 22.4034 83.2909 22.4034C77.6278 22.4034 73.494 18.234 73.494 12.4995C73.494 6.76499 77.6254 2.59554 83.2909 2.59554C88.9564 2.59554 93.0783 6.78878 93.0783 12.4995ZM95.081 12.4995C95.081 5.75652 90.0363 0.707031 83.2909 0.707031C76.5456 0.707031 71.4961 5.75652 71.4961 12.4995C71.4961 19.2424 76.5408 24.2896 83.2909 24.2896C90.041 24.2896 95.081 19.2591 95.081 12.4995Z" fill="#0F2B93"/>
</g>
<defs>
<clipPath id="clip0_9515_270234">
<rect width="95.0817" height="23.5833" fill="white" transform="translate(0 0.707031)"/>
</clipPath>
</defs>
</svg>
