<svg width="84" height="64" viewBox="0 0 84 64" fill="none" xmlns="http://www.w3.org/2000/svg">
<path d="M12.2709 57.4261C28.6331 66.1947 55.1616 66.1947 71.5237 57.4261C87.8859 48.6575 87.8841 34.4427 71.5237 25.6741C55.1634 16.9055 28.6331 16.9055 12.2709 25.6741C-4.09122 34.4427 -4.0894 48.6593 12.2709 57.4261Z" fill="#F5F5F5"/>
<path d="M17.5958 0.687449L16.3284 1.41168C16.3284 1.35555 16.3393 1.29942 16.3393 1.24511V0.882991C16.3393 0.234806 15.883 -0.0222961 15.3217 0.296365C15.0795 0.444204 14.8725 0.643178 14.7152 0.879369C14.6229 0.062801 13.991 -0.241375 13.2052 0.207647C12.3651 0.69288 11.6825 1.87337 11.6825 2.84565V3.38882C11.6799 3.61046 11.7282 3.82974 11.8237 4.02977L10.779 4.63269C10.6147 4.73986 10.4779 4.88422 10.3798 5.05408C10.2817 5.22394 10.2249 5.41452 10.2141 5.6104C10.2141 5.97251 10.4676 6.11736 10.779 5.9363L17.5958 1.99106C17.7602 1.884 17.8971 1.73966 17.9952 1.56978C18.0934 1.3999 18.1501 1.20926 18.1607 1.01335C18.1643 0.654858 17.9109 0.508202 17.5958 0.687449Z" fill="#EBEBEB"/>
<path d="M22.9858 4.35492L22.0353 4.89809C22.0379 4.85588 22.0379 4.81355 22.0353 4.77135V4.50157C22.0353 4.01272 21.6912 3.81355 21.2676 4.05798C21.0853 4.17042 20.9292 4.3204 20.8095 4.49795C20.7407 3.88235 20.2573 3.65422 19.6706 3.9928C19.3356 4.21063 19.0567 4.50461 18.8569 4.85073C18.6571 5.19686 18.542 5.58533 18.5209 5.98443V6.39543C18.5174 6.56007 18.5508 6.72341 18.6187 6.87342L17.8293 7.32788C17.7054 7.40896 17.6023 7.51809 17.5283 7.64643C17.4544 7.77476 17.4118 7.9187 17.4038 8.06659C17.4038 8.33817 17.5939 8.44862 17.8293 8.31283L22.9768 5.33987C23.1006 5.25917 23.2038 5.15038 23.2777 5.02233C23.3516 4.89429 23.3943 4.75061 23.4022 4.60296C23.4113 4.32957 23.2212 4.21912 22.9858 4.35492Z" fill="#EBEBEB"/>
<path d="M73.8593 9.29352L72.9088 9.83669C72.9114 9.79448 72.9114 9.75215 72.9088 9.70995V9.43474C72.9088 8.94589 72.5648 8.74673 72.1411 8.99296C71.9581 9.10435 71.8017 9.25454 71.683 9.43293C71.6142 8.81734 71.1399 8.58739 70.5442 8.92597C70.2094 9.144 69.931 9.43807 69.7315 9.78418C69.532 10.1303 69.4171 10.5187 69.3963 10.9176V11.3286C69.3916 11.4931 69.4244 11.6566 69.4922 11.8066L68.7046 12.261C68.5805 12.342 68.4771 12.4511 68.4029 12.5794C68.3286 12.7078 68.2856 12.8517 68.2773 12.9998C68.2773 13.2713 68.4693 13.3818 68.7046 13.246L73.8521 10.273C73.976 10.1923 74.0791 10.0836 74.153 9.95551C74.227 9.82746 74.2696 9.68378 74.2776 9.53613C74.2848 9.26817 74.0947 9.15772 73.8593 9.29352Z" fill="#EBEBEB"/>
<path d="M17.116 26.9219L2.99536 35.0749V35.7538L15.9391 43.2261L30.0598 35.0749V34.3959L17.116 26.9219Z" fill="#1F7A8C"/>
<path opacity="0.15" d="M2.99536 35.0742L15.9391 42.5464V43.2254L2.99536 35.7532V35.0742Z" fill="black"/>
<path opacity="0.1" d="M15.9392 42.5496L30.0599 34.3984V35.0774L15.9392 43.2286V42.5496Z" fill="black"/>
<path d="M28.8034 31.9435L28.2454 33.043L28.3358 33.0889L28.8938 31.9894L28.8034 31.9435Z" fill="#455A64"/>
<path d="M27.772 31.8607L27.6858 31.9141L28.23 32.7931L28.3162 32.7397L27.772 31.8607Z" fill="#455A64"/>
<path d="M28.3759 31.7578V34.4085C28.3755 34.4158 28.3731 34.4229 28.369 34.429C28.3648 34.4351 28.3591 34.4399 28.3524 34.4429C28.334 34.4527 28.3135 34.4579 28.2926 34.4579C28.2718 34.4579 28.2512 34.4527 28.2329 34.4429C28.2258 34.4402 28.2197 34.4355 28.2152 34.4294C28.2107 34.4233 28.208 34.416 28.2075 34.4085V31.7578H28.3759Z" fill="#455A64"/>
<path d="M30.3803 30.9343C30.3803 31.1778 30.3081 31.4159 30.1729 31.6183C30.0376 31.8208 29.8453 31.9786 29.6203 32.0718C29.3953 32.165 29.1478 32.1894 28.909 32.1418C28.6701 32.0943 28.4508 31.9771 28.2786 31.8049C28.1064 31.6327 27.9891 31.4133 27.9416 31.1745C27.8941 30.9357 27.9185 30.6881 28.0117 30.4632C28.1049 30.2382 28.2627 30.0459 28.4651 29.9106C28.6676 29.7753 28.9057 29.7031 29.1492 29.7031C29.4755 29.7036 29.7884 29.8335 30.0192 30.0643C30.25 30.2951 30.3799 30.6079 30.3803 30.9343Z" fill="#1F7A8C"/>
<path opacity="0.2" d="M29.5348 30.6165C29.6941 30.1168 29.8625 29.9212 29.7556 29.8597C29.5518 29.7439 29.3191 29.6888 29.085 29.7008C28.8509 29.7128 28.625 29.7914 28.434 29.9273C28.243 30.0633 28.0948 30.2509 28.0068 30.4682C27.9188 30.6855 27.8946 30.9233 27.9372 31.1539C27.9797 31.3844 28.0872 31.598 28.247 31.7695C28.4068 31.9411 28.6122 32.0634 28.8391 32.1222C29.0661 32.181 29.3051 32.1738 29.5281 32.1014C29.751 32.0291 29.9487 31.8945 30.0978 31.7137C29.7267 31.8205 29.3283 31.2647 29.5348 30.6165Z" fill="black"/>
<path d="M28.0754 31.2795C28.0754 31.4507 28.0246 31.618 27.9295 31.7603C27.8344 31.9027 27.6993 32.0136 27.5411 32.0791C27.383 32.1446 27.209 32.1617 27.0411 32.1283C26.8732 32.0949 26.719 32.0125 26.598 31.8915C26.4769 31.7704 26.3945 31.6162 26.3611 31.4484C26.3277 31.2805 26.3449 31.1065 26.4104 30.9483C26.4759 30.7902 26.5868 30.655 26.7291 30.5599C26.8714 30.4648 27.0388 30.4141 27.2099 30.4141C27.4395 30.4141 27.6596 30.5052 27.8219 30.6675C27.9842 30.8299 28.0754 31.05 28.0754 31.2795Z" fill="#1F7A8C"/>
<path opacity="0.2" d="M27.21 30.4141C27.0284 30.414 26.8515 30.4717 26.7049 30.5788C26.6813 31.1057 27.1304 31.6217 27.0036 31.7955C26.8769 31.9693 26.5709 31.8625 26.4604 31.7141C26.5367 31.8454 26.6462 31.9543 26.7778 32.03C26.9095 32.1056 27.0588 32.1453 27.2106 32.145C27.3625 32.1447 27.5116 32.1044 27.643 32.0282C27.7744 31.9521 27.8834 31.8427 27.9591 31.711C28.0348 31.5794 28.0746 31.4302 28.0744 31.2783C28.0741 31.1264 28.034 30.9773 27.9579 30.8459C27.8818 30.7145 27.7725 30.6054 27.6409 30.5296C27.5093 30.4538 27.3601 30.4139 27.2082 30.4141H27.21Z" fill="black"/>
<path d="M28.2927 31.9375C29.1697 31.9375 29.8806 31.2265 29.8806 30.3496C29.8806 29.4726 29.1697 28.7617 28.2927 28.7617C27.4157 28.7617 26.7048 29.4726 26.7048 30.3496C26.7048 31.2265 27.4157 31.9375 28.2927 31.9375Z" fill="#1F7A8C"/>
<path opacity="0.1" d="M29.8371 30.7123C29.7772 30.9694 29.6541 31.2075 29.479 31.4051C29.3038 31.6026 29.0822 31.7534 28.8342 31.8437C28.5861 31.9341 28.3194 31.9611 28.0583 31.9225C27.7972 31.8838 27.5498 31.7807 27.3385 31.6224C27.1273 31.4641 26.9588 31.2556 26.8484 31.0158C26.738 30.776 26.6891 30.5124 26.7062 30.249C26.7233 29.9856 26.8058 29.7305 26.9462 29.507C27.0867 29.2835 27.2806 29.0985 27.5106 28.9688C27.3764 29.0479 27.2544 29.1461 27.1484 29.2603C27.0695 29.5997 27.1046 29.9556 27.2482 30.2732C27.3918 30.5907 27.636 30.852 27.943 31.0169C28.25 31.1817 28.6028 31.2409 28.9468 31.1852C29.2908 31.1295 29.6069 30.962 29.8462 30.7087L29.8371 30.7123Z" fill="black"/>
<path d="M5.27728 32.6232L4.71924 33.7227L4.80965 33.7685L5.3677 32.6691L5.27728 32.6232Z" fill="#455A64"/>
<path d="M4.24148 32.5326L4.15527 32.5859L4.69945 33.465L4.78565 33.4116L4.24148 32.5326Z" fill="#455A64"/>
<path d="M4.84758 32.4336V35.0843C4.84686 35.0918 4.84412 35.0989 4.83966 35.105C4.83519 35.111 4.82917 35.1158 4.82223 35.1187C4.8036 35.1277 4.78317 35.1323 4.76249 35.1323C4.7418 35.1323 4.72137 35.1277 4.70274 35.1187C4.69602 35.1157 4.69026 35.1109 4.68611 35.1048C4.68195 35.0987 4.67956 35.0916 4.6792 35.0843V32.4336H4.84758Z" fill="#455A64"/>
<path d="M6.85178 31.6062C6.85178 31.8497 6.77958 32.0877 6.64429 32.2902C6.50901 32.4927 6.31672 32.6505 6.09175 32.7437C5.86678 32.8368 5.61923 32.8612 5.3804 32.8137C5.14157 32.7662 4.9222 32.649 4.75001 32.4768C4.57783 32.3046 4.46057 32.0852 4.41306 31.8464C4.36556 31.6076 4.38994 31.36 4.48312 31.135C4.57631 30.9101 4.73411 30.7178 4.93658 30.5825C5.13905 30.4472 5.37709 30.375 5.62059 30.375C5.94713 30.375 6.26028 30.5047 6.49118 30.7356C6.72207 30.9665 6.85178 31.2797 6.85178 31.6062Z" fill="#1F7A8C"/>
<path opacity="0.2" d="M6.00829 31.2912C6.16762 30.7914 6.336 30.5959 6.22918 30.5361C6.0447 30.43 5.83547 30.3744 5.62264 30.375C5.41519 30.3749 5.21108 30.4272 5.02926 30.5271C4.84744 30.627 4.6938 30.7712 4.58262 30.9463C4.47144 31.1215 4.40632 31.3219 4.3933 31.5289C4.38028 31.736 4.41978 31.9429 4.50815 32.1306C4.59651 32.3183 4.73087 32.4806 4.89874 32.6025C5.06661 32.7244 5.26256 32.8019 5.46839 32.8278C5.67422 32.8536 5.88325 32.8271 6.07608 32.7506C6.26891 32.6741 6.43928 32.5501 6.57138 32.3902C6.20564 32.497 5.80007 31.9393 6.00829 31.2912Z" fill="black"/>
<path d="M4.54707 31.9553C4.54707 32.1265 4.49631 32.2938 4.40121 32.4361C4.30612 32.5784 4.17095 32.6894 4.01281 32.7549C3.85467 32.8204 3.68066 32.8375 3.51277 32.8041C3.34489 32.7707 3.19068 32.6883 3.06965 32.5673C2.94861 32.4462 2.86619 32.292 2.83279 32.1241C2.7994 31.9563 2.81654 31.7822 2.88204 31.6241C2.94755 31.466 3.05847 31.3308 3.2008 31.2357C3.34312 31.1406 3.51045 31.0898 3.68162 31.0898C3.79534 31.0896 3.90798 31.1118 4.01309 31.1552C4.1182 31.1986 4.2137 31.2624 4.29412 31.3428C4.37453 31.4232 4.43827 31.5187 4.48168 31.6238C4.52509 31.7289 4.54731 31.8416 4.54707 31.9553Z" fill="#1F7A8C"/>
<path opacity="0.2" d="M3.68171 31.0898C3.5003 31.0892 3.32338 31.1462 3.17656 31.2528C3.15302 31.7815 3.60023 32.2975 3.4753 32.4695C3.35037 32.6415 3.04076 32.5365 2.93213 32.3898C3.00838 32.5212 3.11784 32.6301 3.24952 32.7058C3.3812 32.7814 3.53047 32.8211 3.68233 32.8208C3.83419 32.8204 3.98329 32.7802 4.11467 32.704C4.24605 32.6279 4.35507 32.5185 4.43079 32.3868C4.5065 32.2552 4.54625 32.1059 4.54604 31.9541C4.54583 31.8022 4.50566 31.6531 4.42957 31.5217C4.35348 31.3903 4.24415 31.2812 4.11256 31.2054C3.98097 31.1296 3.83176 31.0897 3.6799 31.0898H3.68171Z" fill="black"/>
<path d="M4.76243 32.6093C5.63939 32.6093 6.35031 31.8984 6.35031 31.0215C6.35031 30.1445 5.63939 29.4336 4.76243 29.4336C3.88548 29.4336 3.17456 30.1445 3.17456 31.0215C3.17456 31.8984 3.88548 32.6093 4.76243 32.6093Z" fill="#1F7A8C"/>
<path opacity="0.1" d="M6.30677 31.386C6.24614 31.6423 6.12263 31.8795 5.9474 32.0761C5.77217 32.2728 5.55073 32.4227 5.30307 32.5123C5.05541 32.6019 4.78933 32.6285 4.52884 32.5895C4.26836 32.5506 4.02166 32.4474 3.81104 32.2893C3.60041 32.1311 3.43248 31.923 3.32241 31.6838C3.21233 31.4445 3.16358 31.1816 3.18054 30.9187C3.1975 30.6559 3.27966 30.4014 3.41958 30.1783C3.5595 29.9552 3.75279 29.7704 3.982 29.6406C3.84502 29.7196 3.72004 29.8178 3.61083 29.9321C3.53257 30.2712 3.56798 30.6265 3.7116 30.9435C3.85522 31.2604 4.09907 31.5213 4.40559 31.686C4.71211 31.8507 5.06428 31.91 5.40784 31.8548C5.75139 31.7996 6.06726 31.633 6.30677 31.3806V31.386Z" fill="black"/>
<path d="M20.3208 37.9808L22.2925 36.8438L24.0614 37.8649L22.0915 39.0001L20.3208 37.9808Z" fill="#F0F0F0"/>
<path d="M6.52769 35.0752L6.52588 28.9609L15.9409 34.3945V40.5106L6.52769 35.0752Z" fill="#F0F0F0"/>
<path d="M6.52588 31.3871L15.9409 36.8243V34.3945L6.52588 28.9609V31.3871Z" fill="#E0E0E0"/>
<path d="M26.5291 34.3941V28.45L22.9985 27.6008V26.9219L15.9409 34.3941V40.5102L26.5291 34.3941Z" fill="#FAFAFA"/>
<path d="M22.9985 26.9219V27.6008L27.1176 28.6202V27.9412L22.9985 26.9219Z" fill="#263238"/>
<path d="M17.7063 22.5076L27.1177 27.943L22.9986 26.9236L13.5854 21.4883L17.7063 22.5076Z" fill="#37474F"/>
<path d="M15.3506 35.4164L23.0003 26.9212V26.2422L14.7622 35.7531L15.3506 35.4164Z" fill="#37474F"/>
<path d="M13.5872 20.8086L23.0004 26.2439L14.7768 35.7639L5.34912 30.3195L13.5872 20.8086Z" fill="#455A64"/>
<path d="M10.634 29.6172L11.82 30.3016V32.0198L10.634 31.3409V29.6172Z" fill="#263238"/>
<path d="M11.8201 30.3016L13.0042 29.6172V30.6619L11.8201 32.0198V30.3016Z" fill="#37474F"/>
<path d="M11.82 28.4531L10.511 29.2081V29.5503L11.82 30.3017L13.1273 29.5503V29.2081L11.82 28.4531Z" fill="#F5F5F5"/>
<path d="M10.511 29.5492L11.82 30.3006V29.9584L10.511 29.207V29.5492Z" fill="#E0E0E0"/>
<path d="M13.1273 29.5492L11.8201 30.3006V29.9584L13.1273 29.207V29.5492Z" fill="#EBEBEB"/>
<path d="M10.9509 29.2047L11.82 28.7031L12.6891 29.2047L11.82 29.7044L10.9509 29.2047Z" fill="#1F7A8C"/>
<path d="M11.82 28.7031V29.7044L10.9509 29.2047L11.82 28.7031Z" fill="#37474F"/>
<path d="M11.8201 28.7031L12.6891 29.2047L11.8201 29.7044V28.7031Z" fill="#263238"/>
<path d="M16.7031 35.993L19.352 34.4648V36.5035L16.7031 38.0317V35.993Z" fill="#455A64"/>
<path d="M19.2343 36.4363V34.5352L16.7031 35.9945V37.8974L19.2343 36.4363Z" fill="#E0E0E0"/>
<path d="M19.352 36.5063L19.2343 36.4375L16.7031 37.8986V38.0344L19.352 36.5063Z" fill="#37474F"/>
<path d="M16.7031 37.0134L19.352 35.4853V35.3477L16.7031 36.8758V37.0134Z" fill="#455A64"/>
<path d="M23.176 32.2547L25.8231 30.7266V32.7653L23.176 34.2934V32.2547Z" fill="#455A64"/>
<path d="M25.7054 32.698V30.7969L23.176 32.2562V34.1591L25.7054 32.698Z" fill="#E0E0E0"/>
<path d="M25.8231 32.7641L25.7054 32.6953L23.176 34.1564V34.2922L25.8231 32.7641Z" fill="#37474F"/>
<path d="M23.176 33.2751L25.8231 31.747V31.6094L23.176 33.1393V33.2751Z" fill="#455A64"/>
<path d="M20.3208 37.9783V33.9027L22.2925 32.7656V36.8412L20.3208 37.9783Z" fill="#37474F"/>
<path d="M22.2237 36.7919V32.8086L20.3208 33.9058V37.8891L22.2237 36.7919Z" fill="#455A64"/>
<path d="M22.2924 32.7656L22.2236 32.8055V36.7887L22.2924 36.8412V32.7656Z" fill="#263238"/>
<path d="M13.7917 35.1969L12.4084 34.3984V36.4353L13.7917 37.2338V35.1969Z" fill="#455A64"/>
<path d="M12.5261 36.3659V34.4648L13.7917 35.1963V37.0974L12.5261 36.3659Z" fill="#FAFAFA"/>
<path d="M12.4084 36.436L12.5261 36.3672L13.7917 37.0987V37.2345L12.4084 36.436Z" fill="#37474F"/>
<path d="M13.7917 36.208L12.4084 35.4149V35.2773L13.7917 36.0704V36.208Z" fill="#455A64"/>
<path d="M12.5261 34.4648L13.7917 35.1963V35.5892L12.5261 34.8632V34.4648Z" fill="#F5F5F5"/>
<path d="M9.67283 32.818L8.28955 32.0195V34.0582L9.67283 34.8567V32.818Z" fill="#455A64"/>
<path d="M8.40894 33.987V32.0859L9.67271 32.8156V34.7167L8.40894 33.987Z" fill="#FAFAFA"/>
<path d="M8.28955 34.0571L8.40905 33.9883L9.67283 34.7179V34.8555L8.28955 34.0571Z" fill="#37474F"/>
<path d="M9.67283 33.8291L8.28955 33.036V32.8984L9.67283 33.6915V33.8291Z" fill="#455A64"/>
<path d="M8.40894 32.0859L9.67271 32.8156V33.1922L8.40894 32.468V32.0859Z" fill="#F5F5F5"/>
<path d="M66.0938 26.3281L51.9731 34.4811V35.1601L66.0938 43.3131L80.2163 35.1601V34.4811L66.0938 26.3281Z" fill="#1F7A8C"/>
<path opacity="0.15" d="M51.9731 34.4844L66.0956 42.6374L66.0938 43.3163L51.9731 35.1633V34.4844Z" fill="black"/>
<path opacity="0.1" d="M66.0956 42.6374L80.2162 34.4844V35.1633L66.0938 43.3163L66.0956 42.6374Z" fill="black"/>
<path d="M78.999 32.0529L78.4409 33.1523L78.5313 33.1982L79.0894 32.0987L78.999 32.0529Z" fill="#455A64"/>
<path d="M78.1094 31.6572L78.0232 31.7109L78.5711 32.5897L78.6573 32.536L78.1094 31.6572Z" fill="#455A64"/>
<path d="M78.5741 31.8672V34.5179C78.5738 34.5252 78.5714 34.5323 78.5672 34.5384C78.5631 34.5445 78.5573 34.5493 78.5506 34.5523C78.5322 34.5621 78.5117 34.5672 78.4909 34.5672C78.47 34.5672 78.4495 34.5621 78.4311 34.5523C78.4242 34.5494 78.4182 34.5446 78.4137 34.5386C78.4092 34.5325 78.4065 34.5254 78.4058 34.5179V31.8672H78.5741Z" fill="#455A64"/>
<path d="M80.5783 31.0437C80.5783 31.2872 80.5061 31.5252 80.3709 31.7277C80.2356 31.9302 80.0433 32.088 79.8183 32.1812C79.5933 32.2743 79.3458 32.2987 79.107 32.2512C78.8681 32.2037 78.6488 32.0865 78.4766 31.9143C78.3044 31.7421 78.1871 31.5227 78.1396 31.2839C78.0921 31.0451 78.1165 30.7975 78.2097 30.5725C78.3029 30.3476 78.4607 30.1553 78.6631 30.02C78.8656 29.8847 79.1037 29.8125 79.3472 29.8125C79.6737 29.8125 79.9868 29.9422 80.2177 30.1731C80.4486 30.404 80.5783 30.7172 80.5783 31.0437Z" fill="#1F7A8C"/>
<path opacity="0.2" d="M79.733 30.7251C79.8923 30.2254 80.0625 30.0299 79.9539 29.9683C79.7499 29.8529 79.5172 29.798 79.2831 29.8103C79.049 29.8225 78.8233 29.9013 78.6324 30.0375C78.4416 30.1736 78.2936 30.3613 78.2058 30.5787C78.118 30.796 78.0941 31.0339 78.1369 31.2644C78.1796 31.4949 78.2873 31.7083 78.4472 31.8797C78.6071 32.0511 78.8126 32.1733 79.0396 32.2319C79.2666 32.2905 79.5055 32.2831 79.7284 32.2105C79.9513 32.138 80.1489 32.0033 80.2979 31.8224C79.9321 31.9292 79.5284 31.3679 79.733 30.7251Z" fill="black"/>
<path d="M78.2736 31.3889C78.2736 31.5601 78.2229 31.7274 78.1278 31.8697C78.0327 32.012 77.8975 32.123 77.7394 32.1885C77.5812 32.254 77.4072 32.2711 77.2393 32.2377C77.0715 32.2043 76.9172 32.1219 76.7962 32.0009C76.6752 31.8798 76.5927 31.7256 76.5594 31.5577C76.526 31.3898 76.5431 31.2158 76.6086 31.0577C76.6741 30.8996 76.785 30.7644 76.9274 30.6693C77.0697 30.5742 77.237 30.5234 77.4082 30.5234C77.6377 30.5234 77.8578 30.6146 78.0201 30.7769C78.1825 30.9392 78.2736 31.1594 78.2736 31.3889Z" fill="#1F7A8C"/>
<path opacity="0.2" d="M77.4082 30.5234C77.2266 30.5237 77.0498 30.5813 76.903 30.6882C76.8795 31.2151 77.3285 31.7311 77.2036 31.9049C77.0786 32.0787 76.769 31.9719 76.6604 31.8234C76.7366 31.9548 76.8461 32.0637 76.9778 32.1394C77.1095 32.215 77.2587 32.2546 77.4106 32.2543C77.5625 32.254 77.7116 32.2138 77.8429 32.1376C77.9743 32.0614 78.0833 31.952 78.1591 31.8204C78.2348 31.6888 78.2745 31.5395 78.2743 31.3877C78.2741 31.2358 78.2339 31.0867 78.1578 30.9553C78.0818 30.8238 77.9724 30.7148 77.8408 30.639C77.7092 30.5632 77.56 30.5233 77.4082 30.5234Z" fill="black"/>
<path d="M78.4909 32.0468C79.3679 32.0468 80.0788 31.3359 80.0788 30.459C80.0788 29.582 79.3679 28.8711 78.4909 28.8711C77.614 28.8711 76.9031 29.582 76.9031 30.459C76.9031 31.3359 77.614 32.0468 78.4909 32.0468Z" fill="#1F7A8C"/>
<path opacity="0.1" d="M80.0353 30.825C79.9739 31.0812 79.8498 31.318 79.6741 31.5142C79.4984 31.7104 79.2766 31.8598 79.0288 31.949C78.781 32.0382 78.5148 32.0643 78.2544 32.025C77.994 31.9857 77.7474 31.8823 77.5369 31.724C77.3264 31.5657 77.1586 31.3575 77.0485 31.1183C76.9385 30.879 76.8897 30.616 76.9066 30.3532C76.9234 30.0904 77.0054 29.8359 77.1451 29.6126C77.2849 29.3893 77.4779 29.2043 77.7069 29.0742C77.5687 29.1521 77.443 29.2504 77.3339 29.3657C77.255 29.7051 77.2901 30.0611 77.4337 30.3786C77.5773 30.6961 77.8215 30.9575 78.1285 31.1223C78.4355 31.2872 78.7883 31.3463 79.1323 31.2906C79.4763 31.2349 79.7924 31.0675 80.0317 30.8142L80.0353 30.825Z" fill="black"/>
<path d="M54.2504 31.9943L53.6924 33.0938L53.7828 33.1396L54.3408 32.0402L54.2504 31.9943Z" fill="#455A64"/>
<path d="M53.3677 31.6884L53.2815 31.7422L53.8294 32.6209L53.9156 32.5672L53.3677 31.6884Z" fill="#455A64"/>
<path d="M53.8254 31.8086V34.4593C53.8245 34.4667 53.8216 34.4738 53.8172 34.4798C53.8128 34.4858 53.8068 34.4906 53.8 34.4937C53.7814 34.5027 53.761 34.5073 53.7403 34.5073C53.7196 34.5073 53.6992 34.5027 53.6805 34.4937C53.6741 34.4902 53.6686 34.4853 53.6646 34.4793C53.6605 34.4734 53.6579 34.4665 53.657 34.4593V31.8086H53.8254Z" fill="#455A64"/>
<path d="M55.8296 30.9812C55.8296 31.2247 55.7574 31.4627 55.6221 31.6652C55.4868 31.8677 55.2945 32.0255 55.0695 32.1187C54.8446 32.2118 54.597 32.2362 54.3582 32.1887C54.1194 32.1412 53.9 32.024 53.7278 31.8518C53.5556 31.6796 53.4384 31.4602 53.3908 31.2214C53.3433 30.9826 53.3677 30.735 53.4609 30.51C53.5541 30.2851 53.7119 30.0928 53.9144 29.9575C54.1168 29.8222 54.3549 29.75 54.5984 29.75C54.9248 29.7505 55.2376 29.8803 55.4684 30.1111C55.6992 30.3419 55.8291 30.6548 55.8296 30.9812Z" fill="#1F7A8C"/>
<path opacity="0.2" d="M54.9842 30.6667C55.1435 30.167 55.3119 29.9714 55.2051 29.9099C55.0012 29.7944 54.7686 29.7395 54.5346 29.7517C54.3006 29.7638 54.0749 29.8425 53.8841 29.9784C53.6932 30.1143 53.5451 30.3019 53.4572 30.5191C53.3693 30.7363 53.3451 30.974 53.3876 31.2044C53.4301 31.4349 53.5374 31.6484 53.6971 31.8199C53.8567 31.9914 54.0619 32.1139 54.2887 32.1728C54.5155 32.2317 54.7544 32.2247 54.9773 32.1526C55.2002 32.0805 55.398 31.9463 55.5473 31.7657C55.1833 31.8707 54.7778 31.3149 54.9842 30.6667Z" fill="black"/>
<path d="M53.5249 31.3285C53.5252 31.4997 53.4748 31.6672 53.3799 31.8098C53.285 31.9524 53.15 32.0636 52.9918 32.1294C52.8337 32.1951 52.6597 32.2125 52.4917 32.1793C52.3237 32.1462 52.1693 32.0639 52.0481 31.9429C51.9269 31.8219 51.8442 31.6677 51.8107 31.4998C51.7772 31.3319 51.7942 31.1578 51.8597 30.9995C51.9251 30.8413 52.036 30.706 52.1784 30.6108C52.3207 30.5156 52.4881 30.4648 52.6594 30.4648C52.8886 30.4648 53.1085 30.5558 53.2707 30.7177C53.433 30.8796 53.5244 31.0993 53.5249 31.3285Z" fill="#1F7A8C"/>
<path opacity="0.2" d="M52.6592 30.4648C52.4778 30.4642 52.3009 30.5212 52.1541 30.6278C52.1306 31.1565 52.5796 31.6707 52.4528 31.8445C52.3261 32.0183 52.0183 31.9115 51.9097 31.7648C51.9859 31.8962 52.0954 32.0051 52.2271 32.0808C52.3587 32.1564 52.508 32.1961 52.6599 32.1958C52.8117 32.1954 52.9608 32.1552 53.0922 32.079C53.2236 32.0029 53.3326 31.8935 53.4083 31.7618C53.484 31.6302 53.5238 31.4809 53.5236 31.3291C53.5234 31.1772 53.4832 31.0281 53.4071 30.8967C53.331 30.7653 53.2217 30.6562 53.0901 30.5804C52.9585 30.5046 52.8093 30.4647 52.6574 30.4648H52.6592Z" fill="black"/>
<path d="M53.7402 31.9843C54.6172 31.9843 55.3281 31.2734 55.3281 30.3965C55.3281 29.5195 54.6172 28.8086 53.7402 28.8086C52.8633 28.8086 52.1523 29.5195 52.1523 30.3965C52.1523 31.2734 52.8633 31.9843 53.7402 31.9843Z" fill="#1F7A8C"/>
<path opacity="0.1" d="M55.2866 30.761C55.2263 31.0179 55.103 31.2557 54.9277 31.453C54.7524 31.6503 54.5308 31.8007 54.2827 31.8908C54.0347 31.9809 53.7681 32.0077 53.5071 31.9689C53.2461 31.9301 52.9989 31.8269 52.7878 31.6685C52.5767 31.5102 52.4085 31.3017 52.2982 31.062C52.1879 30.8222 52.1391 30.5588 52.1562 30.2955C52.1733 30.0322 52.2557 29.7772 52.3961 29.5538C52.5364 29.3303 52.7302 29.1454 52.96 29.0156C52.8226 29.094 52.6976 29.1923 52.5888 29.3071C52.5115 29.6462 52.5476 30.0012 52.6916 30.3177C52.8355 30.6343 53.0794 30.8948 53.3858 31.0593C53.6922 31.2238 54.0441 31.2832 54.3875 31.2283C54.7309 31.1734 55.0467 31.0074 55.2866 30.7556V30.761Z" fill="black"/>
<path d="M68.9382 22.7812L70.1223 23.4656V24.8344L68.9382 24.15V22.7812Z" fill="#E0E0E0"/>
<path d="M70.1223 23.4656L71.3082 22.7812V25.517L70.1223 24.8344V23.4656Z" fill="#F0F0F0"/>
<path d="M70.1224 21.6172L68.8152 22.3704V22.7126L70.1224 23.4658L71.4315 22.7126V22.3704L70.1224 21.6172Z" fill="#455A64"/>
<path d="M68.8152 22.7133L70.1224 23.4665V23.1243L68.8152 22.3711V22.7133Z" fill="#37474F"/>
<path d="M71.4314 22.7133L70.1223 23.4665V23.1243L71.4314 22.3711V22.7133Z" fill="#263238"/>
<path d="M69.2532 22.3708L70.1222 21.8711L70.9931 22.3708L70.1222 22.8723L69.2532 22.3708Z" fill="#1F7A8C"/>
<path d="M70.1222 21.8711V22.8723L69.2532 22.3708L70.1222 21.8711Z" fill="#37474F"/>
<path d="M70.1223 21.8711L70.9932 22.3708L70.1223 22.8723V21.8711Z" fill="#263238"/>
<path d="M66.0956 36.5206L66.0938 30.4062L69.6189 32.4431V38.5575L66.0956 36.5206Z" fill="#F0F0F0"/>
<path d="M66.0938 30.4062L69.6189 32.4431V34.8784L66.0938 32.8451V30.4062Z" fill="#E0E0E0"/>
<path d="M76.6856 34.4811V28.3668L73.1477 26.3281L69.6189 32.4424V38.5567L76.6856 34.4811Z" fill="#FAFAFA"/>
<path d="M69.0359 33.465L73.1478 26.3313V25.6523L68.4475 33.8054L69.0359 33.465Z" fill="#37474F"/>
<path d="M66.0938 21.5742L73.1477 25.6498L68.4475 33.8028L66.0956 32.4431L66.0938 21.5742Z" fill="#455A64"/>
<path d="M73.1479 26.3313L77.2742 28.7086L77.8627 28.37L73.1479 25.6523V26.3313Z" fill="#263238"/>
<path d="M74.6235 31.7227L76.0068 30.9297V32.9684L74.6235 33.7614V31.7227Z" fill="#455A64"/>
<path d="M75.8891 32.9011V31L74.6235 31.7242V33.6253L75.8891 32.9011Z" fill="#E0E0E0"/>
<path d="M76.0068 32.9672L75.8891 32.8984L74.6235 33.6227V33.7603L76.0068 32.9672Z" fill="#37474F"/>
<path d="M74.6235 32.7431L76.0068 31.9501V31.8125L74.6235 32.6055V32.7431Z" fill="#455A64"/>
<path d="M70.2817 34.2266L71.665 33.4336V35.4705L70.2817 36.2653V34.2266Z" fill="#455A64"/>
<path d="M71.5473 35.4029V33.5L70.2817 34.226V36.1271L71.5473 35.4029Z" fill="#E0E0E0"/>
<path d="M71.665 35.4693L71.5473 35.4023L70.2817 36.1266V36.2642L71.665 35.4693Z" fill="#37474F"/>
<path d="M70.2817 35.247L71.665 34.454V34.3164L70.2817 35.1094V35.247Z" fill="#455A64"/>
<path d="M72.2661 29.3865L74.0314 28.3672V29.8953L72.2661 30.9147V29.3865Z" fill="#455A64"/>
<path d="M73.9137 29.8259V28.4336L72.2661 29.386V30.7783L73.9137 29.8259Z" fill="#E0E0E0"/>
<path d="M74.0314 29.8969L73.9137 29.8281L72.2661 30.7805V30.9163L74.0314 29.8969Z" fill="#37474F"/>
<path d="M77.2742 28.7058H76.6858V28.3672L77.2742 28.7058Z" fill="black"/>
<path d="M72.1628 37.0876V33.012L74.1346 31.875V35.9506L72.1628 37.0876Z" fill="#37474F"/>
<path d="M74.0658 35.8973V31.9141L72.1628 33.0113V36.9945L74.0658 35.8973Z" fill="#455A64"/>
<path d="M74.1347 31.875L74.0659 31.9148V35.8981L74.1347 35.9506V31.875Z" fill="#263238"/>
<path d="M66.0939 36.5206V30.4062L62.5706 32.4431V38.5575L66.0939 36.5206Z" fill="#FAFAFA"/>
<path d="M66.0939 30.4062L62.5706 32.4431V34.8784L66.0957 32.8451L66.0939 30.4062Z" fill="#F5F5F5"/>
<path d="M55.5039 34.4811V28.3668L59.04 26.3281L62.5706 32.4424V38.5567L55.5039 34.4811Z" fill="#EBEBEB"/>
<path d="M63.1534 33.465L59.0398 26.3313V25.6523L63.7419 33.8054L63.1534 33.465Z" fill="#455A64"/>
<path d="M66.0938 21.5742L59.0398 25.6498L63.7419 33.8028L66.0938 32.4431V21.5742Z" fill="#37474F"/>
<path d="M59.0398 26.3313L54.9153 28.7086L54.3269 28.37L59.0398 25.6523V26.3313Z" fill="#263238"/>
<path d="M58.0639 31.879L56.6807 31.0859V33.1246L58.0639 33.9159V31.879Z" fill="#455A64"/>
<path d="M56.7983 33.0553V31.1523L58.0639 31.8784V33.7795L56.7983 33.0553Z" fill="#FAFAFA"/>
<path d="M56.7983 31.1523L58.0639 31.8838V32.1355L56.7983 31.4094V31.1523Z" fill="#F5F5F5"/>
<path d="M60.1226 33.0703L61.3881 33.8018V34.0535L60.1226 33.3274V33.0703Z" fill="#F5F5F5"/>
<path d="M56.6807 33.1235L56.7984 33.0547L58.0639 33.7789V33.9147L56.6807 33.1235Z" fill="#37474F"/>
<path d="M58.0639 32.8955L56.6807 32.1024V31.9648L58.0639 32.7579V32.8955Z" fill="#455A64"/>
<path d="M59.9235 29.3865L58.1582 28.3672V29.8953L59.9235 30.9147V29.3865Z" fill="#455A64"/>
<path d="M58.2759 29.8259V28.4336L59.9235 29.386V30.7783L58.2759 29.8259Z" fill="#FAFAFA"/>
<path d="M58.2759 28.4336L59.9235 29.386V29.6376L58.2759 28.6925V28.4336Z" fill="#F5F5F5"/>
<path d="M58.1582 29.8969L58.2759 29.8281L59.9235 30.7805V30.9163L58.1582 29.8969Z" fill="#37474F"/>
<path d="M54.9153 28.7058H55.5037V28.3672L54.9153 28.7058Z" fill="black"/>
<path d="M61.3882 33.8024L60.0049 33.0039V35.0408L61.3882 35.8393V33.8024Z" fill="#455A64"/>
<path d="M60.1226 34.9714V33.0703L61.3881 33.8018V35.7029L60.1226 34.9714Z" fill="#FAFAFA"/>
<path d="M60.0049 35.0415L60.1226 34.9727L61.3882 35.7041V35.8399L60.0049 35.0415Z" fill="#37474F"/>
<path d="M61.3882 34.8134L60.0049 34.0204V33.8828L61.3882 34.6758V34.8134Z" fill="#455A64"/>
<path d="M60.1226 33.0703L61.3881 33.8018V34.0535L60.1226 33.3274V33.0703Z" fill="#F5F5F5"/>
<path d="M68.4475 33.8024L66.6804 32.7812V34.6606L68.4475 35.68V33.8024Z" fill="#263238"/>
<path d="M66.7891 34.5964V32.8438L68.4475 33.8015V35.5542L66.7891 34.5964Z" fill="#FAFAFA"/>
<path d="M66.7891 32.8438V33.2511L68.4475 34.2107V33.8015L66.7891 32.8438Z" fill="#F0F0F0"/>
<path d="M66.6804 34.661L66.7891 34.5977L68.4475 35.5555V35.6804L66.6804 34.661Z" fill="#37474F"/>
<path d="M66.6804 33.7196L66.7891 33.6562L68.4475 34.614V34.7408L66.6804 33.7196Z" fill="#37474F"/>
<path d="M67.5278 35.1489L67.6365 35.2105V33.3329L67.5278 33.2695V35.1489Z" fill="#37474F"/>
<path d="M64.8863 37.8863L65.1995 37.7052C65.2858 37.1961 65.2986 36.6772 65.2375 36.1644C65.08 35.165 64.3974 34.8192 64.1512 34.9188C63.9049 35.0183 63.847 35.3153 64.2942 35.8929C64.6985 36.4775 64.9059 37.1758 64.8863 37.8863Z" fill="#1F7A8C"/>
<g opacity="0.2">
<path d="M64.886 37.8863L65.1993 37.7052C65.2855 37.1961 65.2983 36.6772 65.2373 36.1644C65.0798 35.165 64.3972 34.8192 64.1509 34.9188C63.9047 35.0183 63.8468 35.3153 64.294 35.8929C64.6983 36.4775 64.9057 37.1758 64.886 37.8863Z" fill="black"/>
</g>
<path d="M65.0002 37.4945C64.9971 37.4943 64.9942 37.4934 64.9915 37.492C64.9888 37.4906 64.9864 37.4886 64.9846 37.4862C64.9827 37.4838 64.9813 37.4811 64.9806 37.4781C64.9798 37.4752 64.9797 37.4721 64.9802 37.4691C65.1106 36.5331 64.734 35.5065 64.3103 35.0918C64.3062 35.0878 64.304 35.0822 64.304 35.0764C64.304 35.0707 64.3062 35.0651 64.3103 35.0611C64.3144 35.057 64.3199 35.0547 64.3257 35.0547C64.3315 35.0547 64.337 35.057 64.3411 35.0611C64.772 35.4811 65.1559 36.524 65.0255 37.4764C65.0251 37.4792 65.0241 37.482 65.0225 37.4845C65.021 37.4869 65.019 37.4891 65.0167 37.4908C65.0143 37.4925 65.0116 37.4937 65.0088 37.4943C65.0059 37.4949 65.003 37.495 65.0002 37.4945Z" fill="white"/>
<path d="M64.0171 38.3959C63.9664 38.4249 63.865 38.3633 63.8252 38.3362C63.7586 38.2902 63.705 38.2278 63.6695 38.1551C63.6293 38.0732 63.6154 37.9809 63.6296 37.8908C63.6375 37.8431 63.6484 37.7959 63.6622 37.7495C63.6767 37.7025 63.6894 37.6572 63.7021 37.6119C63.7185 37.5674 63.7253 37.5199 63.722 37.4725C63.7096 37.427 63.6882 37.3844 63.6589 37.3474C63.6297 37.3103 63.5932 37.2796 63.5518 37.2571C63.5052 37.2301 63.4656 37.1927 63.4361 37.1477C63.4065 37.1028 63.3879 37.0516 63.3816 36.9982C63.3875 36.9102 63.4225 36.8268 63.4812 36.761C63.5355 36.6922 63.5989 36.6324 63.6477 36.56C63.6811 36.521 63.701 36.4721 63.7042 36.4209C63.7075 36.3696 63.694 36.3187 63.6659 36.2757C63.62 36.2055 63.5801 36.1316 63.5464 36.0548C63.5299 36.0163 63.5247 35.9739 63.5314 35.9325C63.5382 35.8912 63.5565 35.8526 63.5844 35.8213C63.6118 35.8007 63.6431 35.7858 63.6763 35.7774C63.7096 35.769 63.7442 35.7673 63.7781 35.7724C63.8424 35.7798 63.9043 35.8014 63.9592 35.8358C64.1402 35.9354 64.2416 36.149 64.4317 36.225C64.507 36.2491 64.5838 36.2678 64.6617 36.2812C64.7008 36.2881 64.738 36.3033 64.7708 36.3258C64.8036 36.3483 64.8312 36.3775 64.8518 36.4115C64.9224 36.5509 64.792 36.723 64.8409 36.8714C64.8898 37.0199 65.0129 37.0525 65.0835 37.172C65.1138 37.2232 65.126 37.2832 65.1179 37.3422C65.1115 37.4429 65.087 37.5417 65.0455 37.6337C64.9982 37.724 64.945 37.8111 64.8862 37.8944L64.0171 38.3959Z" fill="#1F7A8C"/>
<g opacity="0.1">
<path d="M64.0171 38.3959C63.9664 38.4249 63.865 38.3633 63.8252 38.3362C63.7586 38.2902 63.705 38.2278 63.6695 38.1551C63.6293 38.0732 63.6154 37.9809 63.6296 37.8908C63.6375 37.8431 63.6484 37.7959 63.6622 37.7495C63.6767 37.7025 63.6894 37.6572 63.7021 37.6119C63.7185 37.5674 63.7253 37.5199 63.722 37.4725C63.7096 37.427 63.6882 37.3844 63.6589 37.3474C63.6297 37.3103 63.5932 37.2796 63.5518 37.2571C63.5052 37.2301 63.4656 37.1927 63.4361 37.1477C63.4065 37.1028 63.3879 37.0516 63.3816 36.9982C63.3875 36.9102 63.4225 36.8268 63.4812 36.761C63.5355 36.6922 63.5989 36.6324 63.6477 36.56C63.6811 36.521 63.701 36.4721 63.7042 36.4209C63.7075 36.3696 63.694 36.3187 63.6659 36.2757C63.62 36.2055 63.5801 36.1316 63.5464 36.0548C63.5299 36.0163 63.5247 35.9739 63.5314 35.9325C63.5382 35.8912 63.5565 35.8526 63.5844 35.8213C63.6118 35.8007 63.6431 35.7858 63.6763 35.7774C63.7096 35.769 63.7442 35.7673 63.7781 35.7724C63.8424 35.7798 63.9043 35.8014 63.9592 35.8358C64.1402 35.9354 64.2416 36.149 64.4317 36.225C64.507 36.2491 64.5838 36.2678 64.6617 36.2812C64.7008 36.2881 64.738 36.3033 64.7708 36.3258C64.8036 36.3483 64.8312 36.3775 64.8518 36.4115C64.9224 36.5509 64.792 36.723 64.8409 36.8714C64.8898 37.0199 65.0129 37.0525 65.0835 37.172C65.1138 37.2232 65.126 37.2832 65.1179 37.3422C65.1115 37.4429 65.087 37.5417 65.0455 37.6337C64.9982 37.724 64.945 37.8111 64.8862 37.8944L64.0171 38.3959Z" fill="black"/>
</g>
<path d="M64.5259 38.1273C64.5201 38.1264 64.5148 38.1237 64.5108 38.1194C64.5069 38.1151 64.5045 38.1096 64.5042 38.1037C64.5422 37.2166 64.1239 36.237 63.8198 35.9528C63.8176 35.9508 63.8159 35.9483 63.8147 35.9456C63.8135 35.943 63.8128 35.9401 63.8128 35.9371C63.8127 35.9342 63.8132 35.9312 63.8142 35.9285C63.8153 35.9257 63.8168 35.9232 63.8189 35.9211C63.8209 35.9189 63.8233 35.9172 63.826 35.916C63.8287 35.9148 63.8316 35.9142 63.8345 35.9141C63.8375 35.914 63.8404 35.9145 63.8431 35.9155C63.8459 35.9166 63.8484 35.9182 63.8505 35.9202C64.1602 36.2099 64.5874 37.2057 64.5494 38.1055C64.549 38.1115 64.5463 38.117 64.5419 38.121C64.5376 38.1251 64.5318 38.1273 64.5259 38.1273Z" fill="white"/>
<path d="M64.392 37.0782C64.1814 37.021 63.9653 36.9864 63.7474 36.975C63.7444 36.975 63.7414 36.9743 63.7386 36.9731C63.7359 36.9719 63.7334 36.9702 63.7313 36.968C63.7293 36.9657 63.7277 36.9631 63.7268 36.9603C63.7258 36.9574 63.7254 36.9544 63.7257 36.9514C63.7261 36.9455 63.7288 36.94 63.7332 36.9359C63.7375 36.9319 63.7433 36.9297 63.7492 36.9297C63.9709 36.9412 64.1907 36.977 64.4046 37.0365C64.4074 37.0373 64.4099 37.0387 64.4121 37.0405C64.4143 37.0423 64.4162 37.0446 64.4175 37.0471C64.4189 37.0496 64.4197 37.0524 64.42 37.0552C64.4202 37.0581 64.4199 37.0609 64.4191 37.0637C64.4171 37.0689 64.4132 37.0733 64.4082 37.076C64.4032 37.0786 64.3975 37.0794 64.392 37.0782Z" fill="white"/>
<path d="M72.1628 37.0863L74.1346 35.9492L75.9035 36.9704L73.9318 38.1056L72.1628 37.0863Z" fill="#F0F0F0"/>
<path d="M40.2787 40.043L23.0674 49.9794V50.7435L40.9395 61.0619L58.149 51.1255V50.3614L40.2787 40.043Z" fill="#1F7A8C"/>
<path d="M48.2217 53.8008L50.1952 54.9541L53.5104 53.0403L51.5314 51.8906L48.2217 53.8008Z" fill="#F0F0F0"/>
<path opacity="0.15" d="M23.0674 49.9805L40.9395 60.2989V61.063L23.0674 50.7445V49.9805Z" fill="black"/>
<path opacity="0.1" d="M40.9395 60.2958L58.149 50.3594V51.1234L40.9395 61.0599V60.2958Z" fill="black"/>
<path d="M56.2152 46.9771L55.4482 48.4883L55.5726 48.5514L56.3396 47.0402L56.2152 46.9771Z" fill="#263238"/>
<path d="M54.7901 46.8494L54.6731 46.9219L55.4212 48.1304L55.5382 48.0579L54.7901 46.8494Z" fill="#263238"/>
<path d="M55.6177 46.7109V50.352C55.6167 50.3622 55.6129 50.3719 55.6069 50.3802C55.6008 50.3884 55.5927 50.395 55.5833 50.3991C55.5578 50.4121 55.5296 50.4189 55.501 50.4189C55.4723 50.4189 55.4441 50.4121 55.4186 50.3991C55.4094 50.3949 55.4016 50.3883 55.3958 50.38C55.3901 50.3717 55.3867 50.362 55.386 50.352V46.7109H55.6177Z" fill="#263238"/>
<path d="M56.6842 47.265C57.6182 47.265 58.3753 46.5078 58.3753 45.5739C58.3753 44.6399 57.6182 43.8828 56.6842 43.8828C55.7503 43.8828 54.9932 44.6399 54.9932 45.5739C54.9932 46.5078 55.7503 47.265 56.6842 47.265Z" fill="#455A64"/>
<path d="M57.2148 45.1458C57.4321 44.4578 57.6657 44.1898 57.5172 44.1065C57.2371 43.9478 56.9175 43.8723 56.5961 43.889C56.2746 43.9056 55.9645 44.0137 55.7023 44.2005C55.4401 44.3873 55.2367 44.645 55.1159 44.9434C54.9952 45.2418 54.9621 45.5685 55.0206 45.8851C55.0791 46.2016 55.2267 46.4949 55.4462 46.7305C55.6656 46.966 55.9477 47.1341 56.2593 47.2148C56.571 47.2956 56.8992 47.2857 57.2054 47.1863C57.5116 47.087 57.7831 46.9023 57.9879 46.654C57.4882 46.7988 56.9324 46.0366 57.2148 45.1458Z" fill="#37474F"/>
<path d="M54.021 47.2427C54.677 47.2427 55.2087 46.7109 55.2087 46.0549C55.2087 45.399 54.677 44.8672 54.021 44.8672C53.365 44.8672 52.8333 45.399 52.8333 46.0549C52.8333 46.7109 53.365 47.2427 54.021 47.2427Z" fill="#455A64"/>
<path d="M54.021 44.8672C53.7714 44.8669 53.528 44.9454 53.3257 45.0917C53.2949 45.8159 53.9105 46.5257 53.7385 46.7647C53.5665 47.0037 53.141 46.8552 52.9944 46.6542C53.0994 46.834 53.2499 46.9829 53.4306 47.0862C53.6114 47.1895 53.8161 47.2434 54.0243 47.2426C54.2324 47.2419 54.4368 47.1864 54.6167 47.0818C54.7967 46.9772 54.946 46.8271 55.0497 46.6466C55.1534 46.4661 55.2079 46.2615 55.2076 46.0533C55.2073 45.8451 55.1523 45.6407 55.0481 45.4604C54.9439 45.2802 54.7942 45.1305 54.6139 45.0264C54.4336 44.9223 54.2292 44.8674 54.021 44.8672Z" fill="#37474F"/>
<path d="M57.6268 45.2705C57.9034 44.0987 57.1777 42.9247 56.006 42.6481C54.8342 42.3715 53.6601 43.0972 53.3836 44.269C53.107 45.4407 53.8327 46.6148 55.0045 46.8914C56.1762 47.1679 57.3503 46.4422 57.6268 45.2705Z" fill="#455A64"/>
<path d="M57.6295 45.2704C57.5447 45.6198 57.3744 45.9427 57.1341 46.2101C56.8937 46.4776 56.5907 46.6812 56.2523 46.8027C55.9139 46.9242 55.5506 46.9598 55.195 46.9063C54.8395 46.8528 54.5027 46.7119 54.215 46.4963C53.9273 46.2806 53.6976 45.9969 53.5465 45.6706C53.3955 45.3443 53.3277 44.9856 53.3494 44.6267C53.3711 44.2678 53.4815 43.9199 53.6708 43.6142C53.8601 43.3084 54.1222 43.0544 54.4338 42.875C54.245 42.9827 54.073 43.1175 53.9233 43.2751C53.8854 43.4384 53.866 43.6054 53.8653 43.773C53.8616 44.2111 53.9904 44.64 54.2348 45.0036C54.4792 45.3671 54.8278 45.6483 55.2349 45.8102C55.6419 45.9721 56.0884 46.0072 56.5157 45.9109C56.9431 45.8145 57.3313 45.5913 57.6295 45.2704Z" fill="#37474F"/>
<path d="M26.4474 46.5474L25.6804 48.0586L25.8047 48.1217L26.5717 46.6105L26.4474 46.5474Z" fill="#263238"/>
<path d="M25.0259 46.4237L24.9089 46.4961L25.6571 47.7046L25.7741 47.6321L25.0259 46.4237Z" fill="#263238"/>
<path d="M25.8575 46.2852V49.9262C25.8568 49.9363 25.8534 49.9459 25.8476 49.9542C25.8419 49.9625 25.8341 49.9691 25.8249 49.9733C25.7994 49.9863 25.7712 49.9931 25.7425 49.9931C25.7139 49.9931 25.6856 49.9863 25.6601 49.9733C25.6507 49.9692 25.6426 49.9627 25.6366 49.9544C25.6305 49.9461 25.6268 49.9364 25.6257 49.9262V46.2852H25.8575Z" fill="#263238"/>
<path d="M26.9203 46.8431C27.8543 46.8431 28.6114 46.086 28.6114 45.152C28.6114 44.2181 27.8543 43.4609 26.9203 43.4609C25.9864 43.4609 25.2292 44.2181 25.2292 45.152C25.2292 46.086 25.9864 46.8431 26.9203 46.8431Z" fill="#455A64"/>
<path d="M27.4507 44.72C27.6679 44.032 27.8997 43.764 27.753 43.6807C27.473 43.522 27.1534 43.4466 26.8319 43.4632C26.5104 43.4798 26.2003 43.5879 25.9382 43.7747C25.676 43.9615 25.4725 44.2192 25.3518 44.5176C25.231 44.8161 25.1979 45.1427 25.2564 45.4593C25.3149 45.7759 25.4626 46.0692 25.682 46.3047C25.9014 46.5403 26.1835 46.7083 26.4952 46.789C26.8068 46.8698 27.135 46.8599 27.4412 46.7606C27.7474 46.6612 28.0189 46.4765 28.2238 46.2282C27.7241 46.3749 27.1664 45.6108 27.4507 44.72Z" fill="#37474F"/>
<path d="M24.2568 46.8169C24.9128 46.8169 25.4446 46.2851 25.4446 45.6291C25.4446 44.9732 24.9128 44.4414 24.2568 44.4414C23.6009 44.4414 23.0691 44.9732 23.0691 45.6291C23.0691 46.2851 23.6009 46.8169 24.2568 46.8169Z" fill="#455A64"/>
<path d="M24.2569 44.4414C24.0076 44.4411 23.7644 44.5189 23.5617 44.6641C23.5291 45.3883 24.1465 46.0981 23.9745 46.3371C23.8025 46.5761 23.377 46.4276 23.2285 46.2266C23.3333 46.4066 23.4835 46.5559 23.6641 46.6595C23.8448 46.7631 24.0495 46.8173 24.2577 46.8169C24.4659 46.8164 24.6704 46.7612 24.8505 46.6568C25.0307 46.5524 25.1803 46.4025 25.2842 46.222C25.3882 46.0416 25.4428 45.837 25.4428 45.6288C25.4427 45.4205 25.3879 45.216 25.2838 45.0356C25.1798 44.8552 25.0301 44.7054 24.8499 44.6011C24.6696 44.4968 24.4652 44.4417 24.2569 44.4414Z" fill="#37474F"/>
<path d="M27.2835 45.8891C28.1348 45.0378 28.1348 43.6575 27.2835 42.8062C26.4322 41.9549 25.0519 41.9549 24.2006 42.8062C23.3493 43.6575 23.3493 45.0378 24.2006 45.8891C25.0519 46.7404 26.4322 46.7404 27.2835 45.8891Z" fill="#455A64"/>
<path d="M27.8637 44.8446C27.779 45.1942 27.6089 45.5173 27.3685 45.785C27.1281 46.0526 26.8251 46.2564 26.4865 46.378C26.148 46.4996 25.7845 46.5352 25.4288 46.4817C25.0731 46.4282 24.7362 46.2872 24.4484 46.0714C24.1606 45.8555 23.931 45.5716 23.78 45.2451C23.629 44.9186 23.5614 44.5597 23.5834 44.2006C23.6053 43.8416 23.7161 43.4936 23.9057 43.1879C24.0953 42.8822 24.3579 42.6284 24.6698 42.4492C24.4804 42.556 24.3082 42.6909 24.1592 42.8494C24.1214 43.0126 24.102 43.1796 24.1013 43.3473C24.098 43.7849 24.227 44.2134 24.4713 44.5765C24.7156 44.9396 25.0639 45.2205 25.4705 45.3823C25.8772 45.5442 26.3232 45.5794 26.7502 45.4835C27.1773 45.3875 27.5654 45.1648 27.8637 44.8446Z" fill="#37474F"/>
<path d="M31.0103 47.6856L44.9118 55.7101V43.4815L31.0103 35.457V47.6856Z" fill="#F0F0F0"/>
<path d="M40.9396 51.126V58.0062L27.0398 49.9799V43.1016L40.9396 51.126Z" fill="#F0F0F0"/>
<path d="M27.0398 45.3937L40.9396 53.42V51.126L27.0398 43.1016V45.3937Z" fill="#E0E0E0"/>
<path d="M31.0103 37.751L44.9118 45.7755V43.4833L31.0103 35.457V37.751Z" fill="#E0E0E0"/>
<path d="M44.9119 43.4831L54.1784 38.1328V50.3614L44.9119 55.7117V43.4831Z" fill="#FAFAFA"/>
<path d="M40.9395 51.125L44.9119 47.3047V55.7112L40.9395 58.0052V51.125Z" fill="#FAFAFA"/>
<path d="M49.5451 35.457L44.9119 43.4833L54.1784 38.1331L49.5451 35.457Z" fill="#FAFAFA"/>
<path d="M44.2493 44.6273L49.5452 35.455V34.8828L44.2493 44.0552V44.6273Z" fill="#1F7A8C"/>
<path opacity="0.1" d="M44.2493 44.6273L49.5452 35.455V34.8828L44.2493 44.0552V44.6273Z" fill="black"/>
<path d="M35.6441 26.86L30.3491 36.0312L44.2495 44.0566L49.5445 34.8854L35.6441 26.86Z" fill="#1F7A8C"/>
<path d="M30.3494 36.0312L44.2491 44.0575V44.6297L30.3494 36.6052V36.0312Z" fill="#1F7A8C"/>
<path opacity="0.15" d="M30.3494 36.0312L44.2491 44.0575V44.6297L30.3494 36.6052V36.0312Z" fill="black"/>
<path d="M49.5452 34.8828L55.3372 38.2269L54.8393 38.513L49.5452 35.455V34.8828Z" fill="#1F7A8C"/>
<path opacity="0.15" d="M49.5452 34.8828L55.3372 38.2269L54.8393 38.513L49.5452 35.455V34.8828Z" fill="black"/>
<path d="M54.8393 38.5148H54.1785V38.1328L54.8393 38.5148Z" fill="#1F7A8C"/>
<path opacity="0.3" d="M54.8393 38.5148H54.1785V38.1328L54.8393 38.5148Z" fill="black"/>
<path d="M33.1431 35.9203V33.1682L34.7273 32.2539L36.3061 34.9879V37.749L33.1431 35.9203Z" fill="#F0F0F0"/>
<path opacity="0.2" d="M34.7275 32.2545L32.7721 33.3825L32.5222 33.2377L34.7275 31.9648V32.2545Z" fill="black"/>
<path d="M36.3062 37.752L37.8868 35.0108L38.6943 33.6094L36.3062 34.9908V37.752Z" fill="#FAFAFA"/>
<path opacity="0.4" d="M32.772 33.3816H33.1431V33.168L32.772 33.3816Z" fill="black"/>
<path d="M36.683 35.6403L34.7275 32.2545V31.9648L36.9274 35.7815L36.683 35.6403Z" fill="#1F7A8C"/>
<path opacity="0.1" d="M36.683 35.6403L34.7275 32.2545V31.9648L36.9274 35.7815L36.683 35.6403Z" fill="black"/>
<path d="M36.9274 35.7835L34.7275 31.9668L37.0034 30.6523L39.2033 34.469L36.9274 35.7835Z" fill="#1F7A8C"/>
<path opacity="0.3" d="M36.9274 35.7835L34.7275 31.9668L37.0034 30.6523L39.2033 34.469L36.9274 35.7835Z" fill="white"/>
<path d="M35.5168 34.5471L33.9343 33.6328V35.4579L35.5168 36.3722V34.5471Z" fill="#455A64"/>
<path d="M34.0955 35.3651V33.7266L35.5168 34.5486V36.1853L34.0955 35.3651Z" fill="#E0E0E0"/>
<path d="M33.9343 35.4574L34.0955 35.3633L35.5168 36.1835V36.3718L33.9343 35.4574Z" fill="#37474F"/>
<path d="M39.7607 39.7445V36.9925L41.3468 36.0781L42.9256 38.8121V41.5732L39.7607 39.7445Z" fill="#F0F0F0"/>
<path opacity="0.2" d="M41.347 36.0788L39.3916 37.2067L39.1399 37.0619L41.347 35.7891V36.0788Z" fill="black"/>
<path d="M42.9258 41.5723L44.5046 38.8311L45.3121 37.4297L42.9258 38.8112V41.5723Z" fill="#FAFAFA"/>
<path opacity="0.4" d="M39.3914 37.2058H39.7607V36.9922L39.3914 37.2058Z" fill="black"/>
<path d="M43.3023 39.4645L41.3469 36.0788V35.7891L43.545 39.6058L43.3023 39.4645Z" fill="#1F7A8C"/>
<path opacity="0.1" d="M43.3023 39.4645L41.3469 36.0788V35.7891L43.545 39.6058L43.3023 39.4645Z" fill="black"/>
<path d="M43.545 39.6056L41.3469 35.7889L43.621 34.4727L45.8209 38.2893L43.545 39.6056Z" fill="#1F7A8C"/>
<path opacity="0.3" d="M43.545 39.6056L41.3469 35.7889L43.621 34.4727L45.8209 38.2893L43.545 39.6056Z" fill="white"/>
<path d="M42.1344 38.3696L40.552 37.457V39.2821L42.1344 40.1964V38.3696Z" fill="#455A64"/>
<path d="M40.7151 39.1854V37.5469L42.1346 38.3671V40.0056L40.7151 39.1854Z" fill="#E0E0E0"/>
<path d="M40.552 39.2777L40.715 39.1836L42.1344 40.0038V40.1921L40.552 39.2777Z" fill="#37474F"/>
<path d="M31.0105 38.7617L44.912 46.7862V47.304L40.2788 52.2722L26.3772 44.2459V43.7299L31.0105 38.7617Z" fill="#1F7A8C"/>
<path d="M31.0105 38.7617L44.912 46.7862L40.2788 51.7544L26.3772 43.7299L31.0105 38.7617Z" fill="#1F7A8C"/>
<path opacity="0.1" d="M40.2786 51.7534V52.2712L44.9118 47.303V46.7852L40.2786 51.7534Z" fill="black"/>
<path opacity="0.15" d="M40.2788 52.2728L26.3772 44.2465V43.7305L40.2788 51.7549V52.2728Z" fill="black"/>
<path d="M32.3356 47.6836L29.0259 45.7734V49.2896L32.3356 51.1997V47.6836Z" fill="#263238"/>
<path d="M29.2288 49.1714V45.8906L32.3357 47.6849V50.9639L29.2288 49.1714Z" fill="#FAFAFA"/>
<path d="M29.2288 45.8906V46.6565L32.3357 48.449V47.6831L29.2288 45.8906Z" fill="#F0F0F0"/>
<path d="M29.0259 49.2896L29.2287 49.1719L32.3356 50.9643V51.1997L29.0259 49.2896Z" fill="#37474F"/>
<path d="M29.0259 47.5317L29.2287 47.4141L32.3356 49.2065V49.4419L29.0259 47.5317Z" fill="#37474F"/>
<path d="M30.6121 50.2075L30.8148 50.3252V46.8091L30.6121 46.6914V50.2075Z" fill="#37474F"/>
<path d="M38.2924 51.125L34.9827 49.2148V52.731L38.2924 54.6411V51.125Z" fill="#263238"/>
<path d="M35.1855 52.6128V49.332L38.2925 51.1245V54.4053L35.1855 52.6128Z" fill="#FAFAFA"/>
<path d="M35.1855 49.332V50.0961L38.2925 51.8904V51.1245L35.1855 49.332Z" fill="#F0F0F0"/>
<path d="M34.9827 52.731L35.1854 52.6133L38.2924 54.4058V54.6411L34.9827 52.731Z" fill="#37474F"/>
<path d="M34.9827 50.9732L35.1854 50.8555L38.2924 52.6479V52.8833L34.9827 50.9732Z" fill="#37474F"/>
<path d="M36.5688 53.6489L36.7716 53.7666V50.2505L36.5688 50.1328V53.6489Z" fill="#37474F"/>
<path d="M42.9258 51.5096L46.2355 49.5977V53.1138L42.9258 55.0239V51.5096Z" fill="#263238"/>
<path d="M46.0327 52.9956V49.7148L42.9258 51.5091V54.7881L46.0327 52.9956Z" fill="#E6E6E6"/>
<path d="M46.0327 49.7148V50.0516L42.9258 51.8441V51.5091L46.0327 49.7148Z" fill="#E0E0E0"/>
<path d="M46.2355 53.1138L46.0327 52.9961L42.9258 54.7886V55.0239L46.2355 53.1138Z" fill="#37474F"/>
<path d="M46.2355 51.356L46.0327 51.2383L42.9258 53.0307V53.2661L46.2355 51.356Z" fill="#37474F"/>
<path d="M44.6493 54.0278L44.4465 54.1455V50.6294L44.6493 50.5117V54.0278Z" fill="#37474F"/>
<path d="M48.1602 40.1289L51.4699 38.2188V41.7349L48.1602 43.645V40.1289Z" fill="#263238"/>
<path d="M51.2671 41.6167V38.3359L48.1602 40.1284V43.4092L51.2671 41.6167Z" fill="#E6E6E6"/>
<path d="M51.2671 38.3359V38.6727L48.1602 40.4652V40.1284L51.2671 38.3359Z" fill="#E0E0E0"/>
<path d="M51.4699 41.7349L51.2671 41.6172L48.1602 43.4097V43.645L51.4699 41.7349Z" fill="#37474F"/>
<path d="M51.4699 39.9771L51.2671 39.8594L48.1602 41.6536V41.889L51.4699 39.9771Z" fill="#37474F"/>
<path d="M49.8837 42.6528L49.6809 42.7705V39.2544L49.8837 39.1367V42.6528Z" fill="#37474F"/>
<path d="M48.2217 53.7997V47.6854L51.5314 45.7734V51.8896L48.2217 53.7997Z" fill="#37474F"/>
<path d="M51.4101 51.7969V45.8438L48.2217 47.6851V53.6383L51.4101 51.7969Z" fill="#455A64"/>
<path d="M51.5315 45.7734L51.4102 45.8441V51.7972L51.5315 51.8896V45.7734Z" fill="#263238"/>
<path d="M44.1882 11.1885C44.0496 11.1099 43.9174 11.0204 43.793 10.9209C43.8361 10.8139 43.8724 10.7138 43.9051 10.6172C44.1535 11.018 44.4937 11.354 44.8975 11.5975C44.706 11.487 44.3073 11.2523 44.1882 11.1885Z" fill="#1F7A8C"/>
<path opacity="0.1" d="M44.1882 11.1885C44.0496 11.1099 43.9174 11.0204 43.793 10.9209C43.8361 10.8139 43.8724 10.7138 43.9051 10.6172C44.1535 11.018 44.4937 11.354 44.8975 11.5975C44.706 11.487 44.3073 11.2523 44.1882 11.1885Z" fill="black"/>
<path d="M49.1433 12.1845C49.1623 16.425 49.1968 22.1446 44.3833 26.7647L44.2798 26.8648L44.1365 26.8924C43.8472 26.9497 43.553 26.9791 43.2581 26.9805C42.517 26.994 41.7941 26.75 41.2129 26.2901C41.6113 26.444 42.0353 26.5213 42.4624 26.5179C42.7575 26.5168 43.0517 26.4867 43.3409 26.4282L43.4824 26.4006L43.586 26.3005C48.4012 21.682 48.3666 15.9625 48.3459 11.722C48.3459 11.4942 48.3459 11.2767 48.3459 11.0679L49.1398 10.4414V11.4579C49.1398 11.6858 49.1416 11.9308 49.1433 12.1845Z" fill="#1F7A8C"/>
<path opacity="0.2" d="M49.1433 12.1845C49.1623 16.425 49.1968 22.1446 44.3833 26.7647L44.2798 26.8648L44.1365 26.8924C43.8472 26.9497 43.553 26.9791 43.2581 26.9805C42.517 26.994 41.7941 26.75 41.2129 26.2901C41.6113 26.444 42.0353 26.5213 42.4624 26.5179C42.7575 26.5168 43.0517 26.4867 43.3409 26.4282L43.4824 26.4006L43.586 26.3005C48.4012 21.682 48.3666 15.9625 48.3459 11.722C48.3459 11.4942 48.3459 11.2767 48.3459 11.0679L49.1398 10.4414V11.4579C49.1398 11.6858 49.1416 11.9308 49.1433 12.1845Z" fill="black"/>
<path opacity="0.1" d="M44.2798 26.867L44.3833 26.7669C49.1968 22.1467 49.1623 16.4272 49.1433 12.1867C49.1433 11.933 49.1433 11.6879 49.1433 11.4567V10.4453L48.7239 10.7698L48.3459 11.0684C48.3459 11.2755 48.3459 11.4895 48.3459 11.7156C48.3666 15.956 48.4012 21.6756 43.586 26.294L43.4824 26.3941L44.2781 26.8549L44.2798 26.867Z" fill="black"/>
<path d="M46.0557 11.4829C45.7726 11.4829 45.3843 11.369 44.9321 10.9651C45.0381 10.9964 45.1479 11.0126 45.2583 11.0135C45.8969 11.0135 46.5838 10.7373 47.2465 10.2161L48.8343 8.96484L49.63 9.42393L48.0422 10.6752C47.3811 11.2068 46.6942 11.4829 46.0557 11.4829Z" fill="#1F7A8C"/>
<path opacity="0.6" d="M46.0557 11.4829C45.7726 11.4829 45.3843 11.369 44.9321 10.9651C45.0381 10.9964 45.1479 11.0126 45.2583 11.0135C45.8969 11.0135 46.5838 10.7373 47.2465 10.2161L48.8343 8.96484L49.63 9.42393L48.0422 10.6752C47.3811 11.2068 46.6942 11.4829 46.0557 11.4829Z" fill="white"/>
<path d="M48.6497 11.4569L47.8523 10.9961C46.5148 12.0506 45.2186 12.1714 44.2901 11.8435C44.2008 11.7636 44.1183 11.6764 44.0433 11.5829L43.2459 11.1238C42.4986 12.9377 40.614 15.5921 38.6396 16.3152C38.6396 19.5823 38.41 24.1473 41.0403 25.6712L41.8376 26.1303C42.421 26.4755 43.1441 26.5876 44.0433 26.4133C48.9931 21.6585 48.6497 15.4437 48.6497 11.4569Z" fill="#263238"/>
<path d="M43.3789 16.832L44.0434 11.5802L43.246 11.1211C42.4987 12.935 40.614 15.5894 38.6396 16.3125L39.437 16.7733L43.3789 16.832Z" fill="#37474F"/>
<path d="M43.2581 26.3001C42.9109 26.3092 42.5655 26.2463 42.2438 26.1153C41.9221 25.9843 41.6311 25.7881 41.389 25.539C39.5941 23.7355 39.6165 20.5426 39.6303 17.5154C39.6303 17.3066 39.6303 17.1047 39.6303 16.9131C41.6306 16.1002 43.3582 13.5632 44.0986 11.9409C44.6356 12.4216 45.3351 12.6807 46.0557 12.6657C46.9197 12.6418 47.7561 12.3566 48.4547 11.8477C48.4547 11.9616 48.4547 12.0772 48.4547 12.1928C48.4737 16.3108 48.5065 21.8163 43.9484 26.2328C43.7209 26.2763 43.4898 26.2988 43.2581 26.3001Z" fill="#FAFAFA"/>
<path d="M43.7361 22.1043L41.2146 20.463L41.9688 19.3066L43.2356 20.1316L45.8883 15.2422L47.1016 15.8997L43.7361 22.1043Z" fill="#1F7A8C"/>
<path d="M48.2596 12.1992C48.2786 16.2739 48.3079 21.6915 43.8552 26.0458C43.6579 26.0795 43.4581 26.0968 43.258 26.0976C42.9374 26.1062 42.6185 26.0482 42.3214 25.9273C42.0244 25.8064 41.7556 25.6252 41.5321 25.3952C39.7942 23.6486 39.8166 20.5041 39.8304 17.5079C39.8304 17.3457 39.8304 17.1887 39.8304 17.0368C41.7289 16.1928 43.3823 13.8698 44.1727 12.2492C44.7183 12.6506 45.3801 12.8628 46.0574 12.8533C46.8377 12.8386 47.5993 12.6125 48.2613 12.1992M48.6496 11.457C47.7297 12.1819 46.8306 12.4649 46.0608 12.4649C45.6808 12.478 45.3026 12.4056 44.9543 12.253C44.606 12.1003 44.2964 11.8714 44.0485 11.583C43.3011 13.3986 41.4165 16.053 39.4421 16.7762C39.4421 20.542 39.1366 26.4929 43.2632 26.4929C43.5269 26.4914 43.7898 26.4649 44.0485 26.4135C48.9931 21.6587 48.6496 15.4438 48.6496 11.457Z" fill="#455A64"/>
<path d="M42.9801 8.99609C42.4968 11.1983 40.0202 14.7657 38.3029 15.3956L37.6592 15.6304L38.4565 16.0912L39.0986 15.8547C40.8244 15.2248 43.2942 11.6591 43.7774 9.4569L42.9801 8.99609Z" fill="#1F7A8C"/>
<path opacity="0.6" d="M42.9801 8.99609C42.4968 11.1983 40.0202 14.7657 38.3029 15.3956L37.6592 15.6304L38.4565 16.0912L39.0986 15.8547C40.8244 15.2248 43.2942 11.6591 43.7774 9.4569L42.9801 8.99609Z" fill="white"/>
<path d="M40.5536 26.3659C38.4152 24.2155 38.4377 20.7275 38.4532 17.5001C38.4532 17.243 38.4532 16.9996 38.4532 16.7683V16.078L37.6559 15.6172V16.3075C37.6559 16.5388 37.6559 16.7839 37.6559 17.0393C37.6403 20.2615 37.6179 23.7495 39.7563 25.8982C39.9908 26.1366 40.256 26.3426 40.545 26.5109L41.2836 26.9389C41.0184 26.7775 40.7734 26.5852 40.5536 26.3659Z" fill="#1F7A8C"/>
<path opacity="0.1" d="M40.5536 26.3659C38.4152 24.2155 38.4377 20.7275 38.4532 17.5001C38.4532 17.243 38.4532 16.9996 38.4532 16.7683V16.078L37.6559 15.6172V16.3075C37.6559 16.5388 37.6559 16.7839 37.6559 17.0393C37.6403 20.2615 37.6179 23.7495 39.7563 25.8982C39.9908 26.1366 40.256 26.3426 40.545 26.5109L41.2836 26.9389C41.0184 26.7775 40.7734 26.5852 40.5536 26.3659Z" fill="white"/>
<path d="M49.6334 12.1846C49.6334 11.9292 49.6334 11.6876 49.6334 11.4563V9.43359L48.0456 10.6849C47.3846 11.2026 46.6977 11.4839 46.0591 11.4839C45.5551 11.4839 44.7095 11.1215 43.7809 9.4543C43.296 11.6582 40.8211 15.2239 39.1021 15.8538L38.4601 16.0903V16.7806C38.4601 17.0119 38.4601 17.2553 38.4601 17.5107C38.4445 20.7329 38.4221 24.2209 40.5622 26.3713C40.9131 26.7308 41.334 27.0146 41.7988 27.2052C42.2637 27.3957 42.7626 27.489 43.2649 27.4793C43.5917 27.477 43.9176 27.4441 44.2383 27.381L44.5213 27.3257L44.7284 27.1255C49.6886 22.3552 49.6541 16.5045 49.6334 12.1846ZM44.3833 26.7666L44.278 26.8667L44.1365 26.8943C43.8471 26.9515 43.5529 26.981 43.258 26.9823C42.8215 26.9903 42.388 26.909 41.9841 26.7434C41.5801 26.5778 41.2143 26.3314 40.9091 26.0193C38.914 24.0155 38.9364 20.6501 38.9502 17.509C38.9502 17.2518 38.9502 17.0067 38.9502 16.7755V16.4303L39.2712 16.3129C41.1352 15.6226 43.3684 12.2709 43.9138 10.6175C44.4178 11.4598 45.3791 11.9775 46.0556 11.9775C46.8047 11.9775 47.5968 11.6652 48.3459 11.0749L49.1398 10.4484V11.4598C49.1398 11.691 49.1398 11.9344 49.1398 12.1898C49.1622 16.4286 49.1933 22.1464 44.3833 26.7666Z" fill="#1F7A8C"/>
<path opacity="0.3" d="M49.6334 12.1846C49.6334 11.9292 49.6334 11.6876 49.6334 11.4563V9.43359L48.0456 10.6849C47.3846 11.2026 46.6977 11.4839 46.0591 11.4839C45.5551 11.4839 44.7095 11.1215 43.7809 9.4543C43.296 11.6582 40.8211 15.2239 39.1021 15.8538L38.4601 16.0903V16.7806C38.4601 17.0119 38.4601 17.2553 38.4601 17.5107C38.4445 20.7329 38.4221 24.2209 40.5622 26.3713C40.9131 26.7308 41.334 27.0146 41.7988 27.2052C42.2637 27.3957 42.7626 27.489 43.2649 27.4793C43.5917 27.477 43.9176 27.4441 44.2383 27.381L44.5213 27.3257L44.7284 27.1255C49.6886 22.3552 49.6541 16.5045 49.6334 12.1846ZM44.3833 26.7666L44.278 26.8667L44.1365 26.8943C43.8471 26.9515 43.5529 26.981 43.258 26.9823C42.8215 26.9903 42.388 26.909 41.9841 26.7434C41.5801 26.5778 41.2143 26.3314 40.9091 26.0193C38.914 24.0155 38.9364 20.6501 38.9502 17.509C38.9502 17.2518 38.9502 17.0067 38.9502 16.7755V16.4303L39.2712 16.3129C41.1352 15.6226 43.3684 12.2709 43.9138 10.6175C44.4178 11.4598 45.3791 11.9775 46.0556 11.9775C46.8047 11.9775 47.5968 11.6652 48.3459 11.0749L49.1398 10.4484V11.4598C49.1398 11.691 49.1398 11.9344 49.1398 12.1898C49.1622 16.4286 49.1933 22.1464 44.3833 26.7666Z" fill="white"/>
</svg>
