<svg width="147" height="145" viewBox="0 0 147 145" fill="none" xmlns="http://www.w3.org/2000/svg">
<path d="M119.235 125.812C119.235 125.812 105.236 101.243 108.468 94.9771C111.7 88.7109 119.951 99.9776 119.951 99.9776C119.951 99.9776 112.775 77.0627 116.723 67.0519C120.671 57.041 127.49 67.0519 127.848 74.1367C128.207 81.2216 126.412 93.3037 126.412 93.3037C126.412 93.3037 129.285 68.3176 136.104 75.8036C142.922 83.2895 127.49 108.302 127.49 108.302C127.49 108.302 137.899 102.47 137.537 109.969C137.175 117.468 124.978 124.135 124.978 124.135" fill="#1F7A8C"/>
<path d="M119.353 121.231C119.353 121.231 106.4 109.146 112.712 103.731C119.024 98.3164 122.345 109.563 122.345 109.563C122.345 109.563 115.368 74.9807 126.661 73.7281C137.954 72.4755 129.65 103.728 129.65 103.728C129.65 103.728 139.283 90.3964 138.619 101.246C137.954 112.095 123.673 121.248 123.673 121.248" stroke="#263238" stroke-width="0.247795" stroke-miterlimit="10"/>
<path d="M125.715 119.036L116.963 109.551" stroke="#263238" stroke-width="0.247795" stroke-miterlimit="10"/>
<path d="M123.894 119.764L126.264 92.0391" stroke="#263238" stroke-width="0.247795" stroke-miterlimit="10"/>
<path d="M123.528 117.747L131.369 107.352" stroke="#263238" stroke-width="0.247795" stroke-miterlimit="10"/>
<path d="M134.871 115.816H110.657L113.08 144.376H132.448L134.871 115.816Z" fill="#263238"/>
<path d="M42.4348 82.6947C39.2866 81.15 36.0324 79.8316 32.6968 78.7495C27.8903 77.2701 22.2191 78.6246 22.0942 80.2257C21.9692 81.8268 22.824 81.0936 23.9451 82.8295C25.0662 84.5654 24.5599 88.6223 26.1643 92.3209C27.7686 96.0195 32.5719 97.8672 32.5719 97.8672L42.4348 82.6947Z" fill="#1F7A8C" stroke="#263238" stroke-width="0.247795" stroke-linecap="round" stroke-linejoin="round"/>
<path opacity="0.3" d="M39.2294 86.2765C39.2294 86.2765 31.8322 81.5916 27.5188 79.9872C23.2054 78.3828 22.9589 80.7269 22.9589 80.7269C23.6685 80.9874 24.2775 81.4658 24.6985 82.0936C25.1196 82.7214 25.3312 83.4663 25.303 84.2217C25.303 86.9899 26.6871 92.7236 30.0503 93.9071C33.4136 95.0907 39.2294 86.2765 39.2294 86.2765Z" fill="black"/>
<path d="M92.0112 91.508C93.9445 90.7736 94.8725 88.4955 94.084 86.4196C93.2954 84.3437 91.0889 83.2562 89.1556 83.9906C87.2223 84.725 86.2943 87.0032 87.0828 89.079C87.8714 91.1549 90.0779 92.2424 92.0112 91.508Z" fill="#1F7A8C" stroke="#263238" stroke-width="0.247795" stroke-linecap="round" stroke-linejoin="round"/>
<path d="M39.0093 130.773L43.1583 143.22C43.2708 143.558 43.4867 143.851 43.7752 144.059C44.0638 144.266 44.4104 144.378 44.7659 144.378H51.2327C51.5636 144.378 51.8873 144.282 52.1637 144.1C52.4401 143.918 52.6571 143.659 52.7878 143.355L55.6809 136.642" fill="#1F7A8C"/>
<path opacity="0.3" d="M41.0898 130.77L44.5221 143.217C44.5871 143.529 44.7529 143.812 44.994 144.021C45.2352 144.23 45.5384 144.354 45.8569 144.374H51.2191C51.5136 144.359 51.796 144.252 52.027 144.069C52.258 143.885 52.4261 143.635 52.5078 143.351L54.9078 136.638" fill="black"/>
<path d="M39.0093 130.773L43.1583 143.22C43.2708 143.558 43.4867 143.851 43.7752 144.059C44.0638 144.266 44.4104 144.378 44.7659 144.378H51.2327C51.5636 144.378 51.8873 144.282 52.1637 144.1C52.4401 143.918 52.6571 143.659 52.7878 143.355L55.6809 136.642" stroke="#263238" stroke-width="0.247795" stroke-linecap="round" stroke-linejoin="round"/>
<path d="M70.2152 130.773L66.0695 143.22C65.957 143.558 65.7412 143.851 65.4526 144.059C65.164 144.266 64.8174 144.378 64.4619 144.378H58.0016C57.6708 144.378 57.3471 144.282 57.0707 144.1C56.7943 143.918 56.5773 143.659 56.4466 143.355L53.5535 136.642" fill="#263238"/>
<path d="M70.2152 130.773L66.0695 143.22C65.957 143.558 65.7412 143.851 65.4526 144.059C65.164 144.266 64.8174 144.378 64.4619 144.378H58.0016C57.6708 144.378 57.3471 144.282 57.0707 144.1C56.7943 143.918 56.5773 143.659 56.4466 143.355L53.5535 136.642" stroke="#263238" stroke-width="0.247795" stroke-linecap="round" stroke-linejoin="round"/>
<path d="M83.9544 130.773L79.8054 143.22C79.6928 143.558 79.477 143.851 79.1884 144.059C78.8999 144.266 78.5532 144.378 78.1977 144.378H71.7309C71.4001 144.378 71.0764 144.282 70.7999 144.1C70.5235 143.918 70.3065 143.659 70.1758 143.355L67.2827 136.642" fill="#1F7A8C"/>
<path opacity="0.3" d="M81.0158 130.77L78.1786 143.217C78.0208 143.907 77.5802 144.374 77.0805 144.374H72.6586C72.1984 144.374 71.7808 143.973 71.5967 143.351L68.8483 136.776" fill="black"/>
<path d="M83.9544 130.773L79.8054 143.22C79.6928 143.558 79.477 143.851 79.1884 144.059C78.8999 144.266 78.5532 144.378 78.1977 144.378H71.7309C71.4001 144.378 71.0764 144.282 70.7999 144.1C70.5235 143.918 70.3065 143.659 70.1758 143.355L67.2827 136.642" stroke="#263238" stroke-width="0.247795" stroke-linecap="round" stroke-linejoin="round"/>
<path d="M61.7829 138.961C81.4235 138.961 97.3454 124.521 97.3454 106.709C97.3454 88.8967 81.4235 74.457 61.7829 74.457C42.1423 74.457 26.2205 88.8967 26.2205 106.709C26.2205 124.521 42.1423 138.961 61.7829 138.961Z" fill="#1F7A8C"/>
<path opacity="0.3" d="M86.2759 84.668C88.3613 88.8037 89.4479 93.3709 89.4485 98.0027C89.4485 115.815 73.5265 130.254 53.8861 130.254C46.5772 130.291 39.4132 128.216 33.2561 124.277C39.4566 132.599 49.954 138.086 61.8586 138.086C80.9269 138.086 96.3789 124.077 96.3789 106.794C96.3591 98.144 92.4994 90.3293 86.2759 84.668Z" fill="black"/>
<path d="M61.7829 138.961C81.4235 138.961 97.3454 124.521 97.3454 106.709C97.3454 88.8967 81.4235 74.457 61.7829 74.457C42.1423 74.457 26.2205 88.8967 26.2205 106.709C26.2205 124.521 42.1423 138.961 61.7829 138.961Z" stroke="#263238" stroke-width="0.247795" stroke-linecap="round" stroke-linejoin="round"/>
<path d="M94.3534 109.602C93.5775 116.098 90.5824 121.993 86.0718 126.648" stroke="#1F7A8C" stroke-width="0.495589" stroke-linecap="round" stroke-linejoin="round"/>
<path d="M93.7649 99.5977C94.2896 101.773 94.5544 104.004 94.5539 106.242" stroke="#1F7A8C" stroke-width="0.495589" stroke-linecap="round" stroke-linejoin="round"/>
<path d="M52.9648 76.4711C55.8951 75.7861 58.8947 75.4419 61.9039 75.4453C63.8305 75.445 65.7546 75.5856 67.6606 75.8662" stroke="#263238" stroke-width="0.991179" stroke-linecap="round" stroke-linejoin="round"/>
<path d="M68.7591 98.9841C68.7591 98.9841 72.2111 96.64 72.336 92.3267C72.461 88.0133 66.7865 81.7273 62.2265 79.1366C57.6666 76.546 54.3362 77.0424 54.2145 78.8901C54.0929 80.7377 52.4885 82.8352 51.8737 86.4089C51.2589 89.9826 51.0091 95.2855 55.8189 97.0115" fill="#1F7A8C"/>
<path d="M68.7591 98.9841C68.7591 98.9841 72.2111 96.64 72.336 92.3267C72.461 88.0133 66.7865 81.7273 62.2265 79.1366C57.6666 76.546 54.3362 77.0424 54.2145 78.8901C54.0929 80.7377 52.4885 82.8352 51.8737 86.4089C51.2589 89.9826 51.0091 95.2855 55.8189 97.0115" stroke="#263238" stroke-width="0.247795" stroke-linecap="round" stroke-linejoin="round"/>
<path opacity="0.3" d="M61.3324 97.6032L62.0393 97.7084C65.0705 98.1456 66.1357 96.1665 66.0469 93.1944C65.9253 89.0027 60.379 80.1261 58.0349 78.8932C55.6908 77.6603 54.9544 79.3863 54.9544 79.3863C54.9544 79.3863 55.2831 79.6066 54.1292 83.4367C53.5966 85.2055 51.6141 91.3731 53.5769 94.1084C55.3127 96.5248 58.5379 97.1856 61.3324 97.6032Z" fill="black"/>
<path opacity="0.3" d="M71.1521 93.3486H71.1061C71.0631 93.3429 71.0216 93.3288 70.9841 93.307C70.9465 93.2853 70.9136 93.2563 70.8874 93.2218C70.8611 93.1872 70.8419 93.1478 70.8309 93.1058C70.8199 93.0638 70.8174 93.0201 70.8234 92.9771C70.859 92.7243 70.8799 92.4696 70.8858 92.2144C70.9516 89.913 69.0744 86.6089 65.9873 83.5613C65.9564 83.5308 65.9318 83.4946 65.9149 83.4547C65.8981 83.4148 65.8892 83.3719 65.8889 83.3285C65.8886 83.2852 65.8969 83.2422 65.9132 83.202C65.9295 83.1619 65.9535 83.1253 65.984 83.0944C66.0144 83.0636 66.0506 83.039 66.0906 83.0221C66.1305 83.0053 66.1734 82.9964 66.2167 82.9961C66.2601 82.9958 66.303 83.004 66.3432 83.0203C66.3834 83.0366 66.4199 83.0607 66.4508 83.0911C69.7122 86.313 71.6157 89.7289 71.5434 92.2308C71.5363 92.5101 71.5144 92.7889 71.4776 93.0659C71.4665 93.1443 71.4275 93.2161 71.3677 93.268C71.3079 93.32 71.2314 93.3486 71.1521 93.3486Z" fill="black"/>
<path opacity="0.3" d="M69.3838 97.3167C69.3216 97.3169 69.2606 97.2994 69.2079 97.2663C69.1552 97.2333 69.113 97.1859 69.0862 97.1298C69.0593 97.0737 69.0489 97.0111 69.0562 96.9493C69.0635 96.8875 69.0882 96.8291 69.1274 96.7808C69.6692 96.117 70.102 95.3712 70.4096 94.5715C70.4405 94.4899 70.5026 94.4241 70.5821 94.3883C70.6617 94.3525 70.7522 94.3498 70.8337 94.3808C70.9152 94.4117 70.9811 94.4738 71.0169 94.5533C71.0526 94.6329 71.0553 94.7234 71.0244 94.8049C70.6922 95.6704 70.2239 96.4773 69.637 97.195C69.6064 97.2327 69.5678 97.2632 69.5241 97.2842C69.4803 97.3053 69.4324 97.3163 69.3838 97.3167V97.3167Z" fill="black"/>
<path opacity="0.3" d="M45.4424 112.948C46.4147 109.051 43.0256 104.85 37.8727 103.564C32.7197 102.278 27.7541 104.395 26.7818 108.292C25.8095 112.189 29.1986 116.39 34.3515 117.676C39.5045 118.961 44.4701 116.845 45.4424 112.948Z" fill="black"/>
<path d="M44.98 112.241C45.9523 108.344 42.5632 104.143 37.4102 102.857C32.2573 101.571 27.2917 103.688 26.3194 107.585C25.3471 111.482 28.7362 115.683 33.8891 116.969C39.0421 118.254 44.0077 116.138 44.98 112.241Z" fill="#1F7A8C" stroke="#263238" stroke-width="0.247795" stroke-linecap="round" stroke-linejoin="round"/>
<path d="M32.7459 108.738C32.8051 109.619 32.4665 110.362 31.9931 110.382C31.5196 110.402 31.0824 109.724 31.0068 108.843C30.9311 107.962 31.2862 107.216 31.7629 107.2C32.2396 107.183 32.6867 107.854 32.7459 108.738Z" stroke="#263238" stroke-width="0.247795" stroke-linecap="round" stroke-linejoin="round"/>
<path d="M39.2625 110.367C39.3217 111.251 38.9831 111.991 38.5097 112.01C38.0362 112.03 37.599 111.353 37.5234 110.468C37.4477 109.584 37.8028 108.844 38.2795 108.825C38.7562 108.805 39.1935 109.482 39.2625 110.367Z" stroke="#263238" stroke-width="0.247795" stroke-linecap="round" stroke-linejoin="round"/>
<path d="M50.0158 112.652C49.9465 113.285 49.7985 113.907 49.5753 114.503C47.6882 119.602 40.8565 121.808 34.1069 119.612" stroke="#263238" stroke-width="0.743384" stroke-linecap="round" stroke-linejoin="round"/>
<path d="M48.915 112.172H51.0093" stroke="#263238" stroke-width="0.743384" stroke-linecap="round" stroke-linejoin="round"/>
<path d="M35.5736 98.5172C35.3434 99.4739 34.7549 100.161 34.2585 100.036C33.7621 99.9111 33.5451 99.0497 33.7785 98.0832C34.0119 97.1166 34.5971 96.4394 35.0936 96.561C35.59 96.6826 35.807 97.5572 35.5736 98.5172Z" fill="#263238" stroke="#263238" stroke-width="0.247795" stroke-linecap="round" stroke-linejoin="round"/>
<path d="M41.6369 99.8465C41.8683 98.8863 41.6538 98.0109 41.1578 97.8914C40.6618 97.7719 40.0721 98.4534 39.8407 99.4136C39.6092 100.374 39.8237 101.249 40.3197 101.369C40.8158 101.488 41.4055 100.807 41.6369 99.8465Z" fill="#263238" stroke="#263238" stroke-width="0.247795" stroke-linecap="round" stroke-linejoin="round"/>
<path d="M50.6902 134.777L54.3066 143.358C54.4364 143.665 54.6537 143.927 54.9315 144.111C55.2092 144.295 55.535 144.393 55.8682 144.394H62.4435C62.7737 144.393 63.0966 144.297 63.3727 144.116C63.6489 143.935 63.8664 143.677 63.9986 143.374L67.9437 134.258H67.7728" fill="#1F7A8C"/>
<path opacity="0.3" d="M58.3303 133.686C56.2459 133.686 53.8197 133.959 51.8569 133.505L55.2366 143.345C55.3171 143.631 55.4849 143.884 55.7166 144.07C55.9483 144.256 56.2322 144.364 56.5287 144.381H61.9467C62.2396 144.364 62.5203 144.258 62.75 144.075C62.9796 143.892 63.147 143.643 63.2289 143.361L66.5001 133.324L65.185 133.505C61.013 133.959 61.1215 133.686 58.3303 133.686Z" fill="black"/>
<path d="M50.6902 134.777L54.3066 143.358C54.4364 143.665 54.6537 143.927 54.9315 144.111C55.2092 144.295 55.535 144.393 55.8682 144.394H62.4435C62.7737 144.393 63.0966 144.297 63.3727 144.116C63.6489 143.935 63.8664 143.677 63.9986 143.374L67.9437 134.258H67.7728" stroke="#263238" stroke-width="0.247795" stroke-linecap="round" stroke-linejoin="round"/>
<path d="M116.193 1.11836L98.0091 27.3176C98.0091 27.3176 96.454 31.0261 94.5406 33.7778C92.6272 36.5296 87.2617 39.2813 87.2617 39.2813C87.2617 39.2813 86.785 44.4232 85.23 46.2183C83.6749 48.0133 80.3248 46.9383 80.3248 46.9383C80.3248 46.9383 78.8881 48.4933 77.3331 49.21C75.778 49.9267 70.9945 47.2966 70.9945 47.2966C70.9945 47.2966 75.298 51.9618 75.8964 53.5168C76.4947 55.0719 77.5731 56.3869 75.6597 57.8236C73.7462 59.2603 71.5895 57.2253 71.5895 57.2253C71.5895 57.2253 72.5495 60.3354 69.7978 60.9338C67.046 61.5321 64.0477 55.5486 62.851 53.5168C61.6543 51.4851 58.1858 43.8249 57.5908 43.4665C56.9957 43.1081 56.1573 41.1947 57.354 39.3997C58.5507 37.6046 67.0394 26.1209 67.9961 25.3023C68.9529 24.4836 87.2617 20.1407 87.2617 20.1407L94.202 1" fill="white"/>
<path opacity="0.2" d="M96.1383 27.6028C96.1383 27.6028 94.1657 33.5206 92.0287 34.6712C89.8918 35.8219 77.7275 38.9452 72.9604 38.2876C68.1933 37.6301 65.5632 35.8219 65.5632 35.8219C65.5632 35.8219 62.9331 39.2739 61.7824 40.4246C60.9812 41.1687 60.0276 41.7297 58.9879 42.0684C58.9879 42.0684 64.7084 56.4387 68.8213 60.8869C69.1408 60.9856 69.4802 61.0015 69.8076 60.9329C72.5593 60.3346 71.5993 57.2245 71.5993 57.2245C71.5993 57.2245 73.7527 59.2562 75.6694 57.8228C77.5861 56.3894 76.5045 55.0711 75.9061 53.516C75.3078 51.961 70.9878 47.2958 70.9878 47.2958C70.9878 47.2958 75.7713 49.9259 77.3264 49.2092C78.8815 48.4925 80.3182 46.9341 80.3182 46.9341C80.3182 46.9341 83.6683 48.0125 85.2233 46.2174C86.7784 44.4224 87.2551 39.2805 87.2551 39.2805C87.2551 39.2805 92.637 36.5288 94.5537 33.777C96.4703 31.0252 98.0221 27.3168 98.0221 27.3168L105.515 16.5234L96.1383 27.6028Z" fill="black"/>
<path d="M116.193 1.11836L98.0091 27.3176C98.0091 27.3176 96.454 31.0261 94.5406 33.7778C92.6272 36.5296 87.2617 39.2813 87.2617 39.2813C87.2617 39.2813 86.785 44.4232 85.23 46.2183C83.6749 48.0133 80.3248 46.9383 80.3248 46.9383C80.3248 46.9383 78.8881 48.4933 77.3331 49.21C75.778 49.9267 70.9945 47.2966 70.9945 47.2966C70.9945 47.2966 75.298 51.9618 75.8964 53.5168C76.4947 55.0719 77.5731 56.3869 75.6597 57.8236C73.7462 59.2603 71.5895 57.2253 71.5895 57.2253C71.5895 57.2253 72.5495 60.3354 69.7978 60.9338C67.046 61.5321 64.0477 55.5486 62.851 53.5168C61.6543 51.4851 58.1858 43.8249 57.5908 43.4665C56.9957 43.1081 56.1573 41.1947 57.354 39.3997C58.5507 37.6046 67.0394 26.1209 67.9961 25.3023C68.9529 24.4836 87.2617 20.1407 87.2617 20.1407L94.202 1" stroke="#263238" stroke-width="0.247795" stroke-linecap="round" stroke-linejoin="round"/>
<path d="M54.0009 70.9812L54.4776 72.7763L61.8945 70.9812L68.8347 52.7972L64.2879 51.2422L54.0009 70.9812Z" fill="white" stroke="#263238" stroke-width="0.247795" stroke-linecap="round" stroke-linejoin="round"/>
<path d="M56.2726 46.8203L66.5596 50.6504L61.5361 73.3779L49.454 69.6694L56.2726 46.8203Z" fill="white" stroke="#263238" stroke-width="0.247795" stroke-linecap="round" stroke-linejoin="round"/>
<path d="M49.8583 68.3069L60.5793 71.4597L65.2445 51.2407L55.8517 48.2227L49.8583 68.3069Z" fill="#1F7A8C" stroke="#263238" stroke-width="0.247795" stroke-linecap="round" stroke-linejoin="round"/>
<path d="M55.8087 53.2261C55.3421 53.1026 54.8545 53.0802 54.3786 53.1603L51.5775 62.5466C51.9829 62.9417 52.4817 63.2278 53.0274 63.3783C55.2235 63.9833 57.6301 62.1981 58.3994 59.3937C59.1687 56.5894 58.0016 53.8277 55.8087 53.2261Z" fill="white" stroke="#263238" stroke-width="0.247795" stroke-linecap="round" stroke-linejoin="round"/>
<path d="M55.4111 54.7782C55.397 54.7718 55.3855 54.7609 55.3783 54.7472C55.3712 54.7335 55.3688 54.7178 55.3717 54.7026L55.4966 54.216C55.5042 54.1955 55.5071 54.1735 55.505 54.1518C55.5029 54.13 55.4959 54.109 55.4845 54.0903C55.4731 54.0716 55.4576 54.0558 55.4392 54.044C55.4208 54.0321 55.4 54.0246 55.3783 54.022L54.8555 53.8971C54.8351 53.8888 54.8129 53.8854 54.7909 53.8872C54.7689 53.889 54.7476 53.8959 54.7287 53.9074C54.7099 53.9189 54.694 53.9347 54.6823 53.9534C54.6706 53.9722 54.6635 53.9934 54.6616 54.0155L54.5596 54.5185C54.5558 54.5335 54.5468 54.5467 54.5341 54.5557C54.5215 54.5648 54.5061 54.569 54.4906 54.5678C54.3124 54.5495 54.1329 54.5495 53.9547 54.5678L52.998 57.7798C53.7443 58.5557 54.9081 58.9436 54.7536 59.5946C54.6648 59.9628 54.3295 60.2521 53.741 60.1206C53.618 60.1042 53.4999 60.0614 53.3948 59.9952C53.2898 59.9291 53.2002 59.841 53.1322 59.7372C53.0642 59.6333 53.0194 59.516 53.0008 59.3933C52.9821 59.2705 52.9902 59.1452 53.0243 59.0258L53.0539 58.8943C53.0703 58.822 53.0276 58.7628 52.9257 58.7398L52.7251 58.6905L52.1564 60.5907C52.3848 60.7984 52.6518 60.9593 52.9421 61.0642C52.9569 61.0706 52.9689 61.0821 52.9761 61.0965C52.9833 61.1109 52.9852 61.1274 52.9816 61.1431L52.8632 61.5606C52.8541 61.581 52.8501 61.6033 52.8516 61.6256C52.853 61.6479 52.8599 61.6696 52.8715 61.6886C52.8832 61.7077 52.8992 61.7237 52.9184 61.7352C52.9376 61.7466 52.9593 61.7533 52.9816 61.7546L53.524 61.8861C53.5431 61.8962 53.5642 61.9018 53.5858 61.9025C53.6074 61.9032 53.6289 61.899 53.6485 61.8901C53.6682 61.8812 53.6856 61.8679 53.6994 61.8513C53.7131 61.8346 53.7229 61.815 53.7279 61.794L53.8166 61.3798C53.8215 61.3645 53.8312 61.3511 53.8442 61.3416C53.8572 61.3322 53.8729 61.3271 53.889 61.3272C55.0462 61.4488 55.832 60.8801 56.0752 59.8675C56.2659 59.0587 55.9931 58.3716 55.1481 57.7239C54.3755 57.1387 53.5602 56.8494 53.7016 56.2511C53.8002 55.8368 54.1783 55.6461 54.6879 55.7678C54.814 55.7881 54.9342 55.8354 55.0403 55.9066C55.1463 55.9778 55.2357 56.0712 55.3022 56.1802C55.3688 56.2892 55.4109 56.4114 55.4257 56.5383C55.4406 56.6651 55.4277 56.7937 55.3881 56.9152L55.3651 57.0072C55.3651 57.0631 55.398 57.1124 55.4999 57.1387L56.4632 57.3688C56.4837 57.3765 56.5057 57.3793 56.5274 57.3772C56.5492 57.3751 56.5702 57.3681 56.5889 57.3567C56.6075 57.3453 56.6234 57.3299 56.6352 57.3115C56.647 57.2931 56.6545 57.2722 56.6572 57.2505L56.7295 56.9447C56.9498 55.9815 56.4862 55.1628 55.4111 54.7782Z" fill="#263238"/>
<path d="M64.7646 34.8543C64.7646 34.8543 66.2013 37.0077 66.4413 38.9244C66.6452 40.558 66.2631 42.2111 65.363 43.5895C64.6463 44.6646 63.9296 45.6213 63.3312 47.298C62.7328 48.9747 62.6145 51.3648 61.7761 52.5582C60.9378 53.7516 60.4611 54.9483 61.6545 56.0267C62.8479 57.105 65.9613 56.9834 67.638 53.8733C69.3147 50.7632 70.3898 47.4131 71.4648 46.2164C72.5399 45.0197 76.0116 42.2712 76.0116 42.2712C76.0116 42.2712 85.4603 40.9561 87.2554 39.2827C89.0504 37.6093 90.6055 33.0625 90.6055 33.0625" fill="white"/>
<path opacity="0.2" d="M89.8918 34.6602C89.8918 34.6602 84.796 37.9478 80.8508 38.9341C76.9056 39.9204 74.4399 39.9204 72.9605 41.893C71.481 43.8656 70.0016 50.1121 68.029 51.2628C66.0564 52.4134 65.7276 48.3039 62.9331 49.1258L62.8411 49.1587C62.5682 50.4408 62.3282 51.7559 61.7759 52.5482C60.9375 53.7449 60.4608 54.9383 61.6543 56.0167C62.8477 57.095 65.9611 56.9734 67.6378 53.8633C69.3145 50.7532 70.3895 47.4031 71.4646 46.2064C72.5396 45.0097 76.0114 42.2612 76.0114 42.2612C76.0114 42.2612 85.4601 40.9461 87.2551 39.2727C88.3401 38.2601 89.3362 36.2021 89.9543 34.7292L89.8918 34.6602Z" fill="black"/>
<path d="M64.7646 34.8543C64.7646 34.8543 66.2013 37.0077 66.4413 38.9244C66.6452 40.558 66.2631 42.2111 65.363 43.5895C64.6463 44.6646 63.9296 45.6213 63.3312 47.298C62.7328 48.9747 62.6145 51.3648 61.7761 52.5582C60.9378 53.7516 60.4611 54.9483 61.6545 56.0267C62.8479 57.105 65.9613 56.9834 67.638 53.8733C69.3147 50.7632 70.3898 47.4131 71.4648 46.2164C72.5399 45.0197 76.0116 42.2712 76.0116 42.2712C76.0116 42.2712 85.4603 40.9561 87.2554 39.2827C89.0504 37.6093 90.6055 33.0625 90.6055 33.0625" stroke="#263238" stroke-width="0.247795" stroke-linecap="round" stroke-linejoin="round"/>
<path d="M61.0563 40.8416C61.0563 40.8416 64.1697 42.515 66.4414 40.6016" stroke="#263238" stroke-width="0.247795" stroke-linecap="round" stroke-linejoin="round"/>
<path d="M71.5831 57.2245L68.8346 51.9609" stroke="#263238" stroke-width="0.247795" stroke-linecap="round" stroke-linejoin="round"/>
<path d="M80.3182 46.9427C80.3182 46.9427 82.4716 45.1477 82.35 41.1992" stroke="#263238" stroke-width="0.247795" stroke-linecap="round" stroke-linejoin="round"/>
<path d="M14.9333 144.371H145.124" stroke="#263238" stroke-width="0.247795" stroke-linecap="round" stroke-linejoin="round"/>
<path d="M3.427 144.371H9.34476" stroke="#263238" stroke-width="0.247795" stroke-linecap="round" stroke-linejoin="round"/>
</svg>
